<?xml version="1.0" standalone="no"?>
<!DOCTYPE svg PUBLIC "-//W3C//DTD SVG 1.1//EN" "http://www.w3.org/Graphics/SVG/1.1/DTD/svg11.dtd" >
<svg xmlns="http://www.w3.org/2000/svg" xmlns:xlink="http://www.w3.org/1999/xlink" version="1.1">
<metadata></metadata>
<defs>
<font id="magalu_display_alphaxbold" horiz-adv-x="1187" >
<font-face units-per-em="2048" ascent="1638" descent="-410" />
<missing-glyph horiz-adv-x="475" />
<glyph unicode="&#xfb01;" horiz-adv-x="1536" d="M37 684v264h190v2q0 202 115 319t311 117q210 0 332 -135l-123 -182q-77 57 -149 57q-75 0 -119.5 -43t-44.5 -131v-4h377v-264h-377v-684h-322v684h-190zM1079 1241q0 70 48.5 117t129.5 47q84 0 133.5 -47t49.5 -117q0 -72 -50 -119t-133 -47t-130.5 46.5t-47.5 119.5z M1100 0v979h319v-979h-319z" />
<glyph unicode="&#xfb02;" horiz-adv-x="1538" d="M37 684v264h190v2q0 202 115 319t311 117q210 0 332 -135l-123 -182q-77 57 -149 57q-75 0 -119.5 -43t-44.5 -131v-4h377v-264h-377v-684h-322v684h-190zM1100 0v1319h319v-1319h-319z" />
<glyph horiz-adv-x="0" />
<glyph horiz-adv-x="682" />
<glyph unicode=" "  horiz-adv-x="475" />
<glyph unicode="&#x09;" horiz-adv-x="475" />
<glyph unicode="&#xa0;" horiz-adv-x="475" />
<glyph unicode="!" horiz-adv-x="616" d="M129 152q0 73 50 122.5t130 49.5t130 -49.5t50 -122.5q0 -75 -50.5 -125t-131.5 -50q-80 0 -129 50t-49 125zM137 1278h340l-22 -848h-293z" />
<glyph unicode="&#x22;" horiz-adv-x="962" d="M129 1278h297l-16 -563h-265zM537 1278h297l-17 -563h-264z" />
<glyph unicode="#" d="M51 264v240h170l31 246h-201v239h230l32 246h267l-33 -246h178l31 246h266l-31 -246h139v-239h-169l-31 -246h200v-240h-231l-31 -241h-266l31 241h-176l-31 -241h-266l30 241h-139zM487 504h177l30 246h-176z" />
<glyph unicode="$" d="M49 262l160 184q170 -159 403 -159q97 0 135.5 24.5t38.5 69.5q0 47 -51.5 77t-169.5 50q-225 40 -334.5 127t-109.5 250q0 138 95.5 230.5t254.5 119.5v199h270v-201q206 -37 344 -193l-157 -184q-79 68 -154 96.5t-164 28.5q-182 0 -182 -90q0 -51 48.5 -75.5 t174.5 -47.5q218 -39 330.5 -128t112.5 -255q0 -153 -92.5 -243t-260.5 -115v-205h-270v207q-269 41 -422 233z" />
<glyph unicode="%" horiz-adv-x="1748" d="M66 918q0 156 85.5 253t241.5 97q163 0 245.5 -95.5t82.5 -254.5q0 -155 -85 -253t-243 -98q-163 0 -245 96t-82 255zM268 -23l924 1280h285l-930 -1280h-279zM272 918q0 -81 29 -121.5t92 -40.5t92 40.5t29 121.5q0 83 -27.5 122t-89.5 39q-65 0 -95 -40t-30 -121z M1028 262q0 156 85.5 253t242.5 97q163 0 245 -95.5t82 -254.5q0 -155 -84.5 -252.5t-242.5 -97.5q-163 0 -245.5 95.5t-82.5 254.5zM1235 262q0 -81 29 -121.5t92 -40.5t92 40.5t29 121.5q0 83 -27.5 122.5t-89.5 39.5q-125 0 -125 -162z" />
<glyph unicode="&#x26;" horiz-adv-x="1325" d="M70 379q0 117 64.5 209.5t174.5 148.5q-59 94 -59 197q0 153 120 258.5t298 105.5q266 0 413 -217l-190 -153q-45 55 -85 75.5t-108 20.5q-70 0 -111.5 -32.5t-41.5 -86.5q0 -42 37.5 -94.5t138.5 -167.5l240 -272q28 51 28 98q0 111 -125 207l174 127 q104 -60 155.5 -150.5t51.5 -197.5q0 -161 -117 -281l95 -111l-211 -151l-103 121q-141 -56 -291 -56q-256 0 -402 106t-146 296zM358 414q0 -94 78 -140.5t203 -46.5q53 0 90 11l-233 272q-26 26 -47 53q-91 -51 -91 -149z" />
<glyph unicode="'" horiz-adv-x="555" d="M129 1278h297l-16 -563h-265z" />
<glyph unicode="(" horiz-adv-x="772" d="M115 532q0 267 106 507.5t297 404.5l230 -168q-76 -87 -125 -155.5t-93 -158.5t-65 -195.5t-21 -234.5q0 -104 15 -194.5t39.5 -160.5t65.5 -140.5t82.5 -124.5t101.5 -123l-230 -168q-191 164 -297 404t-106 507z" />
<glyph unicode=")" horiz-adv-x="772" d="M25 -211q76 86 124.5 155t92 158.5t64 195t20.5 234.5t-20.5 234.5t-64 195.5t-92.5 159t-124 155l229 168q190 -164 295.5 -405t105.5 -507t-105.5 -506.5t-295.5 -404.5z" />
<glyph unicode="*" horiz-adv-x="925" d="M72 840l198 94l-198 94l112 197l185 -127l-19 221h225l-18 -221l184 127l113 -197l-199 -94l199 -94l-113 -197l-184 127l18 -221h-225l19 221l-185 -127z" />
<glyph unicode="+" d="M115 481v297h334v338h292v-338h332v-297h-332v-336h-292v336h-334z" />
<glyph unicode="," horiz-adv-x="542" d="M-45 -145q209 117 209 438h285q0 -199 -95.5 -372t-257.5 -245z" />
<glyph unicode="-" horiz-adv-x="1032" d="M127 395v289h778v-289h-778z" />
<glyph unicode="." horiz-adv-x="542" d="M92 152q0 73 50 122.5t130 49.5t130.5 -49.5t50.5 -122.5q0 -75 -51 -125t-132 -50q-80 0 -129 50t-49 125z" />
<glyph unicode="/" horiz-adv-x="1087" d="M10 -207l781 1720l282 -133l-780 -1720z" />
<glyph unicode="0" horiz-adv-x="1232" d="M88 631q0 186 58.5 330t179.5 230.5t290 86.5q133 0 235 -48.5t165.5 -135.5t96 -204t32.5 -259q0 -140 -33.5 -258t-98.5 -207t-166.5 -139t-230.5 -50q-134 0 -236.5 49t-165.5 138t-94.5 206.5t-31.5 260.5zM412 629q0 -353 202 -353q207 0 207 353q0 172 -47.5 261 t-152.5 89q-209 0 -209 -350z" />
<glyph unicode="1" horiz-adv-x="911" d="M33 1059l411 198h306v-1257h-326v944l-281 -127z" />
<glyph unicode="2" horiz-adv-x="1150" d="M41 967q91 152 227 231.5t305 79.5q92 0 172.5 -24.5t145.5 -73t103 -129t38 -183.5q0 -46 -9.5 -87.5t-31.5 -80.5t-44 -70t-62 -70t-69.5 -65.5t-82.5 -70.5l-176 -150h492v-274h-961v229l350 295q149 125 210 192.5t61 133.5q0 64 -44.5 101.5t-117.5 37.5 q-86 0 -153.5 -35t-143.5 -137z" />
<glyph unicode="3" horiz-adv-x="1140" d="M61 258l205 152q61 -84 139 -121t187 -37q82 0 132 35.5t50 93.5q0 137 -178 137h-209v209l268 260h-518v270h873v-225l-297 -289q166 -17 264 -119t98 -259q0 -174 -129.5 -281t-341.5 -107q-189 0 -321 67.5t-222 213.5z" />
<glyph unicode="4" horiz-adv-x="1204" d="M90 262v262l610 733h283v-747h156v-248h-156v-262h-283v262h-610zM387 510h313v385z" />
<glyph unicode="5" horiz-adv-x="1107" d="M45 238l205 161q64 -84 135.5 -110.5t167.5 -26.5q73 0 121.5 39.5t48.5 101.5q0 85 -61.5 119.5t-202.5 34.5h-324l90 700h738v-264h-506l-23 -198h133q225 0 349 -108.5t124 -303.5q0 -128 -67 -222t-171 -139t-227 -45q-179 0 -308.5 59t-221.5 202z" />
<glyph unicode="6" horiz-adv-x="1169" d="M98 584q0 311 159.5 502.5t416.5 191.5q129 0 242 -52.5t182 -144.5l-156 -174q-54 54 -111.5 78.5t-140.5 24.5q-122 0 -202.5 -72t-96.5 -227q125 82 283 82q192 0 306 -104t114 -275q0 -193 -132.5 -316t-353.5 -123q-250 0 -380 157t-130 452zM408 408q0 -78 53 -124 t141 -46q102 0 156.5 43t54.5 120q0 75 -50.5 117.5t-146.5 42.5q-94 0 -151 -42t-57 -111z" />
<glyph unicode="7" horiz-adv-x="1138" d="M84 975v282h973v-208l-488 -1049h-336l449 975h-598z" />
<glyph unicode="8" horiz-adv-x="1196" d="M96 360q0 89 49 164.5t134 128.5q-154 103 -154 267q0 157 129.5 257.5t341.5 100.5q220 0 346.5 -96.5t126.5 -255.5q0 -81 -40 -149.5t-111 -117.5q184 -113 184 -299q0 -170 -133 -276.5t-369 -106.5q-243 0 -373.5 105t-130.5 278zM406 371q0 -74 50.5 -117 t143.5 -43t144 43t51 117t-51 119t-144 45t-143.5 -45t-50.5 -119zM428 907q0 -63 43.5 -101t124.5 -38t124.5 38t43.5 101t-43.5 100t-124.5 37t-124.5 -37t-43.5 -100z" />
<glyph unicode="9" horiz-adv-x="1165" d="M63 172l156 174q54 -54 113 -78t145 -24q121 0 201 71.5t96 227.5q-125 -82 -282 -82q-192 0 -306 104t-114 275q0 193 132 315.5t353 122.5q250 0 380 -158t130 -454q0 -312 -157 -501.5t-416 -189.5q-132 0 -247 52.5t-184 144.5zM352 852q0 -75 50.5 -117.5 t146.5 -42.5q94 0 151.5 42.5t57.5 111.5q0 78 -53.5 124t-141.5 46q-102 0 -156.5 -43.5t-54.5 -120.5z" />
<glyph unicode=":" horiz-adv-x="542" d="M92 152q0 73 50 122.5t130 49.5t130.5 -49.5t50.5 -122.5q0 -75 -51 -125t-132 -50q-80 0 -129 50t-49 125zM92 815q0 73 50 122.5t130 49.5t130.5 -49.5t50.5 -122.5q0 -75 -51 -124.5t-132 -49.5q-80 0 -129 49.5t-49 124.5z" />
<glyph unicode=";" horiz-adv-x="542" d="M-45 -145q209 117 209 438h285q0 -199 -95.5 -372t-257.5 -245zM121 815q0 73 50 122.5t130 49.5t130 -49.5t50 -122.5q0 -75 -50.5 -124.5t-131.5 -49.5q-80 0 -129 49.5t-49 124.5z" />
<glyph unicode="&#x3c;" d="M180 485v283l711 358l123 -276l-479 -221l479 -221l-123 -277z" />
<glyph unicode="=" d="M145 248v284h897v-284h-897zM145 727v285h897v-285h-897z" />
<glyph unicode="&#x3e;" d="M174 408l477 221l-477 221l123 276l709 -354v-283l-709 -358z" />
<glyph unicode="?" horiz-adv-x="1050" d="M27 1040q74 125 206.5 191.5t294.5 66.5q216 0 335.5 -96.5t119.5 -251.5q0 -89 -41.5 -151.5t-116.5 -120.5q-79 -59 -125.5 -112.5t-46.5 -110.5v-25h-291v41q0 103 43 167.5t144 135.5q52 37 77 67t25 70q0 47 -37.5 72t-105.5 25q-82 0 -152.5 -37t-113.5 -103z M332 152q0 73 50 122.5t130 49.5t130 -49.5t50 -122.5q0 -75 -50.5 -125t-131.5 -50q-80 0 -129 50t-49 125z" />
<glyph unicode="@" horiz-adv-x="1976" d="M104 502q0 180 68.5 340.5t188 277t289.5 184.5t364 68q191 0 353 -53t274 -145.5t174.5 -222t62.5 -279.5q0 -165 -83.5 -298t-216 -203.5t-282.5 -70.5h-90q-18 49 -24 103q-110 -119 -267 -119q-163 0 -259.5 116t-96.5 298q0 181 103 296t270 115q153 0 250 -108 q7 55 22 90h217v-557q95 34 151 121.5t56 222.5q0 151 -80 257.5t-216.5 158t-317.5 51.5q-146 0 -270 -50t-208.5 -136.5t-132 -204.5t-47.5 -252q0 -247 139.5 -415.5t428.5 -238.5l-105 -200q-360 87 -537.5 308t-177.5 546zM829 500q0 -93 43.5 -139t110.5 -46 q76 0 123 44.5t47 121.5v21q0 93 -46 133.5t-118 40.5q-66 0 -113 -43t-47 -133z" />
<glyph unicode="A" horiz-adv-x="1382" d="M14 0l490 1278h373l491 -1278h-334l-98 285h-500l-98 -285h-324zM518 549h332l-164 461z" />
<glyph unicode="B" horiz-adv-x="1290" d="M141 0v1278h553q144 0 251.5 -35.5t172 -115t64.5 -195.5q0 -185 -166 -264q211 -79 211 -297q0 -96 -38.5 -169t-108 -116t-159 -64.5t-198.5 -21.5h-582zM453 250h231q113 0 168 27t55 104q0 82 -57 110.5t-174 28.5h-223v-270zM453 762h211q104 0 160.5 30.5 t56.5 106.5t-56 102.5t-168 26.5h-204v-266z" />
<glyph unicode="C" horiz-adv-x="1277" d="M80 639q0 97 22.5 189.5t73.5 178.5t124 150t183 102.5t242 38.5q165 0 299.5 -72t206.5 -220l-221 -168q-95 161 -283 161q-154 0 -235.5 -101t-81.5 -259q0 -161 82.5 -262t228.5 -101q99 0 174 45t121 123l221 -170q-72 -150 -208.5 -223.5t-309.5 -73.5 q-201 0 -346.5 84t-219 232.5t-73.5 345.5z" />
<glyph unicode="D" horiz-adv-x="1413" d="M141 0v1278h521q316 0 493.5 -174t177.5 -463q0 -140 -46.5 -258t-132 -203t-212 -132.5t-280.5 -47.5h-521zM469 299h193q161 0 251.5 88t90.5 254q0 165 -89 251.5t-251 86.5h-195v-680z" />
<glyph unicode="E" d="M141 0v1278h957v-285h-637v-209h559v-270h-559v-229h655v-285h-975z" />
<glyph unicode="F" horiz-adv-x="1157" d="M141 0v1278h953v-299h-625v-246h543v-297h-543v-436h-328z" />
<glyph unicode="G" horiz-adv-x="1415" d="M80 639q0 97 26.5 191t81.5 179t133 149t189.5 102t241.5 38q172 0 313.5 -72t212.5 -218l-215 -160q-101 166 -311 166q-168 0 -255 -105.5t-87 -279.5q0 -169 87.5 -270t250.5 -101q113 0 190 55t94 148h-270v239h579v-102q0 -286 -164 -453.5t-456 -167.5 q-204 0 -350 85t-218.5 233t-72.5 344z" />
<glyph unicode="H" horiz-adv-x="1472" d="M141 0v1278h328v-477h537v477h325v-1278h-325v498h-537v-498h-328z" />
<glyph unicode="I" horiz-adv-x="610" d="M141 0v1278h328v-1278h-328z" />
<glyph unicode="J" horiz-adv-x="1212" d="M31 270l223 166q47 -79 110.5 -119.5t157.5 -40.5q124 0 186 84t62 234v684h328v-682q0 -289 -140.5 -454t-418.5 -165q-169 0 -302.5 71.5t-205.5 221.5z" />
<glyph unicode="K" horiz-adv-x="1388" d="M141 0v1278h326v-483q62 -9 119 -9q172 0 264 123.5t113 368.5h313q-6 -220 -86.5 -393.5t-218.5 -276.5l403 -608h-393l-309 504q-46 -4 -76 -4q-57 0 -129 10v-510h-326z" />
<glyph unicode="L" horiz-adv-x="1130" d="M141 594v684h328v-709q0 -136 61 -201t185 -65h364v-303h-422q-261 0 -388.5 146.5t-127.5 447.5z" />
<glyph unicode="M" horiz-adv-x="1695" d="M121 0l74 1278h340l315 -623l324 623h327l74 -1278h-311l-41 829l-277 -518h-205l-272 506l-39 -817h-309z" />
<glyph unicode="N" horiz-adv-x="1472" d="M141 0v1278h324l555 -789v789h311v-1278h-323l-555 782v-782h-312z" />
<glyph unicode="O" horiz-adv-x="1464" d="M80 641q0 138 48 259t132.5 209t207 138.5t265.5 50.5q147 0 269.5 -49.5t206 -136.5t129.5 -208.5t46 -262.5q0 -139 -47.5 -261.5t-131.5 -211.5t-206.5 -140t-265.5 -51q-149 0 -272.5 50t-206.5 139t-128.5 211t-45.5 264zM410 639q0 -165 89 -264t232 -99 q142 0 233 99t91 264t-89 262.5t-231 97.5q-143 0 -234 -97.5t-91 -262.5z" />
<glyph unicode="P" horiz-adv-x="1261" d="M141 0v1278h529q252 0 387 -125t135 -342q0 -138 -68 -240.5t-182 -154t-258 -51.5q-116 0 -221 18v-383h-322zM463 651q83 -14 190 -14q97 0 154 49t57 135t-56 131t-157 45h-188v-346z" />
<glyph unicode="Q" horiz-adv-x="1482" d="M80 641q0 138 48 259t132.5 209t207 138.5t265.5 50.5q147 0 269.5 -49.5t206 -136.5t129.5 -208.5t46 -262.5q0 -245 -136 -422.5t-363 -224.5q44 -135 178 -135q72 0 129.5 31.5t120.5 99.5l160 -152q-91 -108 -196 -167.5t-243 -59.5q-186 0 -297.5 99.5t-144.5 279.5 q-239 44 -375.5 221t-136.5 430zM410 639q0 -165 89 -264t232 -99q142 0 233 99t91 264t-89 262.5t-231 97.5q-143 0 -234 -97.5t-91 -262.5z" />
<glyph unicode="R" horiz-adv-x="1282" d="M141 0v1278h533q239 0 377.5 -122t138.5 -314q0 -126 -58 -222t-161 -155l293 -465h-367l-225 391q-51 0 -78 2q-57 0 -141 15v-408h-312zM453 674q85 -15 198 -15q98 0 152.5 47.5t54.5 129.5t-54.5 128t-152.5 46h-198v-336z" />
<glyph unicode="S" horiz-adv-x="1220" d="M29 240l170 200q181 -176 432 -176q104 0 145 27.5t41 75.5q0 52 -54.5 84t-182.5 55q-238 40 -356 135t-118 268q0 179 142.5 284t365.5 105q323 0 521 -221l-168 -198q-84 74 -164.5 105.5t-175.5 31.5q-197 0 -197 -101q0 -53 52.5 -78.5t191.5 -52.5 q115 -24 197 -55.5t145.5 -79.5t95 -117t31.5 -161q0 -195 -138.5 -294.5t-379.5 -99.5q-180 0 -334.5 65.5t-261.5 197.5z" />
<glyph unicode="T" horiz-adv-x="1271" d="M53 975v303h1166v-303h-422v-975h-326v975h-418z" />
<glyph unicode="U" horiz-adv-x="1425" d="M123 637v641h326v-651q0 -180 63 -265.5t199 -85.5q137 0 201.5 85t64.5 266v651h326v-641q0 -307 -152.5 -483.5t-437.5 -176.5q-296 0 -443 172.5t-147 487.5z" />
<glyph unicode="V" horiz-adv-x="1388" d="M10 1278h361l325 -944l328 944h354l-487 -1278h-381z" />
<glyph unicode="W" horiz-adv-x="1978" d="M29 1278h377l184 -903l215 893h385l215 -893l184 903h361l-365 -1278h-377l-219 928l-219 -928h-373z" />
<glyph unicode="X" horiz-adv-x="1396" d="M10 0l473 662l-448 616h405l265 -393l264 393h387l-441 -627l474 -651h-410l-287 428l-295 -428h-387z" />
<glyph unicode="Y" horiz-adv-x="1288" d="M10 1278h367l272 -510l269 510h360l-471 -827v-451h-326v449z" />
<glyph unicode="Z" horiz-adv-x="1267" d="M86 0v279l649 700h-645v299h1075v-279l-643 -700h664v-299h-1100z" />
<glyph unicode="[" horiz-adv-x="890" d="M168 -330v1725h694v-281h-377v-1163h377v-281h-694z" />
<glyph unicode="\" horiz-adv-x="1087" d="M12 1380l283 133l780 -1720l-282 -133z" />
<glyph unicode="]" horiz-adv-x="890" d="M29 -49h379v1163h-379v281h694v-1725h-694v281z" />
<glyph unicode="^" horiz-adv-x="1196" d="M109 621l344 340q69 69 151 69q79 0 148 -69l335 -345l-194 -165l-295 266l-295 -266z" />
<glyph unicode="_" horiz-adv-x="1024" d="M0 -119h1024v-258h-1024v258z" />
<glyph unicode="`" horiz-adv-x="1024" d="M209 1223l78 204l504 -178l-70 -180z" />
<glyph unicode="a" horiz-adv-x="1128" d="M68 279q0 58 22 110t67 97t124.5 71.5t183.5 26.5q150 0 260 -39v8q0 97 -54.5 147t-152.5 50q-80 0 -144.5 -18.5t-133.5 -72.5l-144 181q104 88 213.5 124.5t253.5 36.5q207 0 334 -118.5t127 -358.5v-524h-240q-24 62 -28 133q-121 -156 -332 -156q-95 0 -166.5 26.5 t-111.5 71t-59 96t-19 108.5zM360 295q0 -44 33.5 -68t91.5 -24q95 0 151.5 43t72.5 112l2 13q-98 24 -191 24q-160 0 -160 -100z" />
<glyph unicode="b" horiz-adv-x="1261" d="M117 0v1319h319v-445q130 127 305 127q203 0 323 -144t120 -370q0 -228 -123 -369t-332 -141q-192 0 -321 142q-11 -79 -29 -119h-262zM436 481q0 -118 63.5 -174.5t159.5 -56.5q39 0 73.5 12t64.5 38t47.5 73.5t17.5 111.5q0 125 -57.5 184.5t-145.5 59.5 q-99 0 -161 -59t-62 -160v-29z" />
<glyph unicode="c" horiz-adv-x="1050" d="M78 492q0 143 65 259.5t181 183t260 66.5q284 0 411 -239l-188 -137q-40 55 -82 79.5t-113 24.5q-103 0 -159 -66.5t-56 -170.5q0 -105 57 -173.5t162 -68.5q70 0 116.5 30t88.5 87l193 -138q-70 -127 -175.5 -189.5t-256.5 -62.5q-231 0 -367.5 145t-136.5 370z" />
<glyph unicode="d" horiz-adv-x="1263" d="M78 492q0 228 125 368.5t334 140.5q173 0 286 -110v428h322v-1319h-262q-22 46 -33 129q-64 -72 -150 -112t-182 -40q-134 0 -235 67.5t-153 183.5t-52 264zM397 494q0 -123 58.5 -183.5t144.5 -60.5q98 0 160.5 59.5t62.5 159.5v29q0 119 -61.5 175t-155.5 56 q-40 0 -75 -12t-66.5 -37.5t-49.5 -73t-18 -112.5z" />
<glyph unicode="e" horiz-adv-x="1130" d="M78 489q0 135 59 250.5t175 188.5t266 73q121 0 214 -39.5t149.5 -111t85 -166.5t28.5 -211v-51h-676q19 -91 84.5 -144t161.5 -53q94 0 153.5 28.5t110.5 88.5l168 -135q-68 -116 -188.5 -173t-272.5 -57q-242 0 -380 141t-138 371zM383 606h377q-7 82 -52.5 123 t-121.5 41q-166 0 -203 -164z" />
<glyph unicode="f" horiz-adv-x="983" d="M37 684v264h190v2q0 202 115 319t311 117q210 0 332 -135l-123 -182q-77 57 -149 57q-75 0 -119.5 -43t-44.5 -131v-4h377v-264h-377v-684h-322v684h-190z" />
<glyph unicode="g" horiz-adv-x="1251" d="M80 520q0 214 131 347.5t324 133.5q188 0 313 -135q9 65 29 113h262v-803q0 -238 -154 -386t-405 -148q-150 0 -268.5 34t-215.5 123l142 213q67 -53 135.5 -73.5t163.5 -20.5q140 0 212 61t72 171v45q-114 -121 -301 -121q-198 0 -319 122.5t-121 323.5zM399 535 q0 -101 57.5 -159.5t137.5 -58.5q98 0 162.5 56.5t64.5 144.5v10q0 57 -19 100.5t-52 67.5t-70.5 35.5t-79.5 11.5q-38 0 -72 -11t-64 -34t-47.5 -65t-17.5 -98z" />
<glyph unicode="h" horiz-adv-x="1218" d="M117 0v1319h319v-438q117 120 295 120q185 0 284 -116.5t99 -339.5v-545h-319v555q0 86 -39.5 130t-112.5 44q-96 0 -151.5 -69t-55.5 -209v-451h-319z" />
<glyph unicode="i" horiz-adv-x="552" d="M96 1241q0 70 48.5 117t129.5 47q84 0 133.5 -47t49.5 -117q0 -72 -50 -119t-133 -47t-130.5 46.5t-47.5 119.5zM117 0v979h319v-979h-319z" />
<glyph unicode="j" horiz-adv-x="581" d="M-219 -252l123 195q55 -41 133 -41q48 0 78 35.5t30 93.5v948h320v-916q0 -200 -101 -310.5t-272 -110.5q-185 0 -311 106zM125 1241q0 70 48.5 117t129.5 47q84 0 133 -47t49 -117q0 -72 -49.5 -119t-132.5 -47t-130.5 46.5t-47.5 119.5z" />
<glyph unicode="k" horiz-adv-x="1175" d="M117 0v1319h311v-670q58 -4 92 -4q136 0 200.5 74.5t90.5 259.5h291q-14 -346 -232 -494l293 -485h-358l-219 393q-20 -2 -64 -2q-48 0 -94 6v-397h-311z" />
<glyph unicode="l" horiz-adv-x="555" d="M117 0v1319h319v-1319h-319z" />
<glyph unicode="m" horiz-adv-x="1859" d="M117 0v979h264q23 -56 29 -123q122 145 313 145q219 0 311 -167q111 167 346 167q183 0 279 -116.5t96 -339.5v-545h-321v555q0 174 -142 174q-196 0 -196 -278v-451h-320v555q0 174 -145 174q-94 0 -144.5 -68.5t-50.5 -209.5v-451h-319z" />
<glyph unicode="n" horiz-adv-x="1218" d="M117 0v979h264q23 -60 29 -127q124 149 321 149q185 0 284 -116.5t99 -339.5v-545h-319v555q0 86 -39.5 130t-112.5 44q-96 0 -151.5 -69t-55.5 -209v-451h-319z" />
<glyph unicode="o" horiz-adv-x="1214" d="M78 492q0 100 38 192.5t105 162.5t168 112t219 42q161 0 283 -69t184 -183.5t62 -256.5q0 -101 -37.5 -194t-104.5 -164t-168 -114t-219 -43q-121 0 -222 40.5t-168 110.5t-103.5 164t-36.5 200zM397 492q0 -100 52.5 -171t158.5 -71q105 0 156 70.5t51 171.5 q0 62 -19.5 113.5t-67.5 87.5t-118 36q-107 0 -160 -69.5t-53 -167.5z" />
<glyph unicode="p" horiz-adv-x="1263" d="M119 -336v1315h264q21 -47 31 -127q139 149 329 149q205 0 324 -144t119 -370q0 -227 -123 -368.5t-330 -141.5q-174 0 -295 115v-428h-319zM438 483q0 -118 64.5 -175.5t159.5 -57.5q86 0 145 56.5t59 180.5q0 125 -57.5 183.5t-144.5 58.5q-99 0 -162.5 -59t-63.5 -158 v-29z" />
<glyph unicode="q" horiz-adv-x="1257" d="M78 492q0 228 125 368.5t334 140.5q191 0 313 -135q15 83 31 113h264v-1315h-322v438q-128 -125 -305 -125q-134 0 -235 67.5t-153 183.5t-52 264zM397 494q0 -123 58.5 -183.5t144.5 -60.5q98 0 160.5 59.5t62.5 159.5v29q0 119 -61.5 175t-155.5 56q-40 0 -75 -12 t-66.5 -37.5t-49.5 -73t-18 -112.5z" />
<glyph unicode="r" horiz-adv-x="915" d="M117 0v979h264q22 -57 31 -133q110 155 290 155q109 0 183 -51l-99 -252q-49 25 -114 25q-102 0 -169 -66.5t-67 -207.5v-449h-319z" />
<glyph unicode="s" horiz-adv-x="993" d="M43 143l137 181q129 -97 303 -97q67 0 102.5 14t35.5 52q0 35 -35 51.5t-133 30.5q-184 27 -268.5 106t-84.5 211q0 139 117 224t303 85q125 0 221 -37.5t183 -115.5l-140 -170q-55 48 -110 66t-131 18q-69 0 -100 -15t-31 -49t33.5 -49t138.5 -35q181 -33 264.5 -108 t83.5 -217q0 -132 -112.5 -222t-299.5 -90q-159 0 -271 40.5t-206 125.5z" />
<glyph unicode="t" horiz-adv-x="1011" d="M33 715v264h190v240h320v-240h377v-264h-377v-283q0 -182 162 -182q79 0 153 55l133 -196q-132 -132 -344 -132q-209 0 -316.5 111.5t-107.5 349.5v277h-190z" />
<glyph unicode="u" horiz-adv-x="1212" d="M111 432v547h321v-555q0 -174 146 -174q95 0 147.5 68.5t52.5 207.5v453h320v-979h-262q-18 37 -33 125q-119 -148 -314 -148q-183 0 -280.5 117t-97.5 338z" />
<glyph unicode="v" horiz-adv-x="1179" d="M25 979h356l215 -651l215 651h346l-401 -979h-336z" />
<glyph unicode="w" horiz-adv-x="1710" d="M31 979h348l139 -651l172 641h340l174 -641l137 651h340l-317 -979h-336l-174 659l-176 -659h-332z" />
<glyph unicode="x" horiz-adv-x="1167" d="M14 0l371 506l-348 473h360l185 -287l190 287h350l-346 -473l373 -506h-361l-210 313l-211 -313h-353z" />
<glyph unicode="y" horiz-adv-x="1183" d="M6 -164l174 150q57 -76 125 -76q46 0 73.5 24t49.5 80l14 37l-419 928h352l229 -625l205 625h350l-399 -973q-25 -60 -50 -108t-62 -97.5t-78 -83t-97 -54.5t-119 -21q-122 0 -204.5 46.5t-143.5 147.5z" />
<glyph unicode="z" horiz-adv-x="1005" d="M68 0v221l469 494h-459v264h854v-221l-467 -494h489v-264h-886z" />
<glyph unicode="{" horiz-adv-x="825" d="M90 424v217q152 15 152 145v193q0 109 39 194.5t107.5 138.5t158 80t194.5 27l70 -260q-128 -4 -194 -64t-66 -169v-170q0 -81 -33 -136t-108 -88q76 -33 108.5 -87.5t32.5 -135.5v-170q0 -109 66 -169t194 -64l-70 -260q-105 0 -194.5 27t-158 80.5t-107.5 139 t-39 195.5v191q0 130 -152 145z" />
<glyph unicode="|" horiz-adv-x="651" d="M162 -281v1743h327v-1743h-327z" />
<glyph unicode="}" horiz-adv-x="829" d="M14 -94q129 4 194.5 63.5t65.5 169.5v170q0 81 33 135.5t109 87.5q-142 61 -142 224v170q0 110 -65.5 169.5t-194.5 63.5l72 260q84 0 158 -17t136.5 -52t107.5 -86.5t70.5 -124t25.5 -160.5v-193q0 -130 153 -145v-217q-153 -15 -153 -145v-191q0 -110 -38.5 -195.5 t-107 -139t-158 -80.5t-194.5 -27z" />
<glyph unicode="~" d="M61 618q57 116 144 184t190 68q111 0 228 -75q85 -54 139 -54q60 0 97.5 24t88.5 93l178 -151q-58 -115 -144.5 -183.5t-188.5 -68.5q-46 0 -93.5 13.5t-75 28t-67.5 38.5q-79 51 -129 51q-61 0 -98 -24t-88 -97z" />
<glyph unicode="&#xa1;" horiz-adv-x="616" d="M129 827q0 75 49 124.5t129 49.5q81 0 131.5 -49.5t50.5 -124.5q0 -73 -50 -122.5t-130 -49.5t-130 49.5t-50 122.5zM137 -299l25 848h293l22 -848h-340z" />
<glyph unicode="&#xa2;" d="M150 641q0 163 93.5 283.5t248.5 160.5v193h270v-188q179 -40 270 -207l-186 -138q-37 54 -78 79.5t-109 25.5q-99 0 -151.5 -60.5t-52.5 -148.5q0 -90 54 -150.5t153 -60.5q47 0 86.5 17.5t61.5 38.5t52 57l187 -133q-97 -181 -287 -222v-188h-270v190 q-161 38 -251.5 160t-90.5 291z" />
<glyph unicode="&#xa3;" d="M39 469v272h139v19q0 108 31.5 200.5t92.5 164t160 112.5t226 41q151 0 254.5 -66.5t177.5 -195.5l-194 -156q-47 72 -98.5 102.5t-127.5 30.5q-104 0 -154 -63t-50 -170v-19h338v-272h-338v-197h596v-272h-914v469h-139z" />
<glyph unicode="&#xa4;" d="M55 295l150 154q-41 80 -41 178q0 99 45 184l-154 156l201 200l158 -155q80 41 176 41q97 0 182 -43l158 157l203 -200l-158 -158q43 -88 43 -182q0 -97 -41 -174l158 -158l-203 -201l-154 152q-88 -45 -188 -45q-96 0 -184 45l-154 -152zM408 627q0 -82 50 -133.5 t130 -51.5q83 0 135.5 51.5t52.5 133.5q0 83 -52 133.5t-136 50.5q-80 0 -130 -50.5t-50 -133.5z" />
<glyph unicode="&#xa5;" d="M16 1257h340l242 -499l238 499h335l-331 -608h182v-180h-272v-115h272v-182h-272v-172h-314v172h-260v182h260v115h-260v180h170z" />
<glyph unicode="&#xa6;" horiz-adv-x="651" d="M162 -281v641h327v-641h-327zM162 823v639h327v-639h-327z" />
<glyph unicode="&#xa7;" horiz-adv-x="1177" d="M80 475q0 153 119 238q-82 85 -82 217q1 106 61.5 190t166 131t237.5 47q152 0 267 -47.5t216 -160.5l-166 -199q-85 72 -152.5 100.5t-154.5 28.5q-85 0 -124.5 -26t-39.5 -68q0 -47 41.5 -68t163.5 -49q112 -24 192.5 -54.5t144 -75t95 -107t31.5 -144.5 q0 -152 -119 -240q82 -82 82 -217q0 -161 -133 -264.5t-336 -103.5q-151 0 -271 49t-221 162l166 198q83 -72 157.5 -101.5t164.5 -29.5q162 0 162 94q0 49 -42.5 70t-166.5 49q-111 24 -191 54.5t-143 75t-94 107t-31 144.5zM389 502q0 -61 51 -92t185 -58q79 -18 120 -33 q39 25 39 82q0 59 -48.5 90.5t-180.5 57.5q-77 17 -127 35q-39 -31 -39 -82z" />
<glyph unicode="&#xa8;" horiz-adv-x="1024" d="M129 1233q0 64 44.5 108.5t117.5 44.5t117.5 -44.5t44.5 -108.5q0 -67 -44 -110.5t-118 -43.5q-75 0 -118.5 43t-43.5 111zM571 1233q0 64 44.5 108.5t115.5 44.5q74 0 119 -44.5t45 -108.5q0 -67 -45 -110.5t-119 -43.5q-73 0 -116.5 43.5t-43.5 110.5z" />
<glyph unicode="&#xa9;" horiz-adv-x="1495" d="M70 641q0 184 89.5 334.5t245 236.5t343.5 86q195 0 350 -84.5t242 -234.5t87 -338q0 -185 -88.5 -337t-244.5 -239.5t-346 -87.5q-147 0 -273 50t-215 138t-139.5 211t-50.5 265zM244 641q0 -214 141.5 -354t362.5 -140q215 0 359 141.5t144 352.5q0 212 -141.5 349.5 t-361.5 137.5q-214 0 -359 -140t-145 -347zM408 637q0 66 23.5 127.5t67.5 111t113.5 79.5t153.5 30q93 0 169 -41.5t116 -124.5l-133 -96q-54 86 -150 86q-77 0 -119.5 -45t-42.5 -125q0 -79 41 -123.5t115 -44.5q108 0 162 84l129 -94q-40 -85 -116.5 -127.5t-174.5 -42.5 q-164 0 -259 92t-95 254z" />
<glyph unicode="&#xaa;" horiz-adv-x="884" d="M57 762q0 42 17 80.5t51 71.5t94 53t139 20q106 0 201 -29v7q0 69 -42 105t-116 36q-62 0 -110.5 -13.5t-102.5 -54.5l-108 140q80 65 164 92.5t192 27.5q161 0 258 -88.5t97 -271.5v-385h-187q-18 44 -22 100q-93 -116 -254 -116q-72 0 -126.5 20t-85 53.5t-45 71.5 t-14.5 80zM283 774q0 -32 25.5 -49.5t68.5 -17.5q71 0 112 31t54 79l4 8q-86 21 -144 21q-120 0 -120 -72z" />
<glyph unicode="&#xab;" horiz-adv-x="1138" d="M80 481l248 379h303l-252 -379l252 -377h-303zM528 481l250 379h303l-252 -379l252 -377h-303z" />
<glyph unicode="&#xac;" d="M133 631v299h901v-635h-295v336h-606z" />
<glyph unicode="&#xad;" horiz-adv-x="1032" d="M127 395v289h778v-289h-778z" />
<glyph unicode="&#xae;" horiz-adv-x="1120" d="M92 895q0 198 135.5 331.5t333.5 133.5q203 0 335 -131.5t132 -333.5q0 -198 -134.5 -332.5t-332.5 -134.5q-203 0 -336 132.5t-133 334.5zM190 895q0 -162 105.5 -267.5t265.5 -105.5q158 0 263.5 106.5t105.5 266.5q0 161 -104 266t-265 105q-157 0 -264 -107 t-107 -264zM373 668v467h202q95 0 147 -44t52 -122q0 -85 -78 -129l119 -172h-149l-97 139q-14 -2 -41 -2h-28v-137h-127zM500 924h63q76 0 76 45q0 26 -16.5 36.5t-59.5 10.5h-63v-92z" />
<glyph unicode="&#xb0;" horiz-adv-x="837" d="M78 1016q0 141 100.5 240.5t241.5 99.5q142 0 241 -98t99 -242q0 -142 -99 -241t-241 -99t-242 99t-100 241zM307 1016q0 -53 32.5 -86t80.5 -33t80 32.5t32 86.5q0 53 -32 85t-80 32q-49 0 -81 -33t-32 -84z" />
<glyph unicode="&#xb1;" d="M115 662v278h334v291h292v-291h332v-278h-332v-291h-292v291h-334zM145 0v274h897v-274h-897z" />
<glyph unicode="&#xb2;" horiz-adv-x="745" d="M45 1092q123 176 336 176q77 0 139.5 -22t105 -75.5t42.5 -132.5q0 -71 -47.5 -121.5t-139.5 -105.5l-96 -57h291v-176h-600v149l213 141q113 76 138 101q27 28 28 53q0 27 -26 43t-69 16q-94 0 -178 -84z" />
<glyph unicode="&#xb3;" horiz-adv-x="741" d="M47 725l131 92q74 -80 201 -80q108 0 108 54q0 53 -104 53h-133v127l162 116h-318v170h545v-137l-168 -139q96 -12 152.5 -67t56.5 -138q0 -94 -81 -151.5t-212 -57.5q-120 0 -202 37t-138 121z" />
<glyph unicode="&#xb4;" horiz-adv-x="1024" d="M221 1249l504 178l78 -204l-512 -154z" />
<glyph unicode="&#xb5;" horiz-adv-x="1239" d="M127 -397v1376h319v-555q0 -87 38 -130.5t110 -43.5q94 0 146.5 68.5t52.5 207.5v453h321v-979h-264q-20 49 -29 109q-99 -132 -254 -132q-60 0 -121 33v-407h-319z" />
<glyph unicode="&#xb6;" horiz-adv-x="1361" d="M78 874q0 172 111.5 288t291.5 116h283v-1251q0 -290 -221 -422l-197 159q67 56 101 113.5t34 130.5v467q-179 0 -291 115t-112 284zM918 0v1278h282v-1278h-282z" />
<glyph unicode="&#xb7;" horiz-adv-x="542" d="M92 647q0 73 50 122.5t130 49.5t130.5 -49.5t50.5 -122.5q0 -75 -51 -124.5t-132 -49.5q-80 0 -129 49.5t-49 124.5z" />
<glyph unicode="&#xb8;" horiz-adv-x="1024" d="M240 -266l102 131q66 -53 123 -53q100 0 100 79q0 75 -96 93l109 108q83 -35 144.5 -101t61.5 -147q0 -101 -74 -161t-206 -60q-79 0 -150 30t-114 81z" />
<glyph unicode="&#xb9;" horiz-adv-x="593" d="M41 1141l258 116h203v-679h-217v477l-170 -68z" />
<glyph unicode="&#xba;" horiz-adv-x="958" d="M74 920q0 155 113 266.5t294 111.5q185 0 294.5 -108.5t109.5 -269.5q0 -101 -48.5 -188t-142 -141t-213.5 -54q-187 0 -297 109.5t-110 273.5zM322 920q0 -71 39 -123t118 -52q80 0 119 51t39 124q0 70 -38.5 120t-117.5 50q-80 0 -119.5 -50t-39.5 -120z" />
<glyph unicode="&#xbb;" horiz-adv-x="1138" d="M59 104l252 377l-252 379h303l248 -379l-248 -377h-303zM508 104l252 377l-252 379h305l248 -379l-248 -377h-305z" />
<glyph unicode="&#xbc;" horiz-adv-x="2260" d="M41 1141l258 116h203v-679h-217v477l-170 -68zM561 -23l924 1280h284l-929 -1280h-279zM1415 129v166l371 385h182v-395h92v-156h-92v-129h-182v129h-371zM1606 285h180v184z" />
<glyph unicode="&#xbd;" horiz-adv-x="2263" d="M41 1141l258 116h203v-679h-217v477l-170 -68zM549 -23l924 1280h284l-930 -1280h-278zM1395 514q123 176 336 176q77 0 139 -21.5t104.5 -75t42.5 -132.5q0 -71 -47.5 -122.5t-138.5 -105.5l-96 -57h290v-176h-600v150l213 141q113 76 136 99q29 29 30 54q0 28 -25.5 44 t-68.5 16q-94 0 -178 -84z" />
<glyph unicode="&#xbe;" horiz-adv-x="2263" d="M47 725l131 92q74 -80 201 -80q108 0 108 54q0 53 -104 53h-133v127l162 116h-318v170h545v-137l-168 -139q96 -12 152.5 -67t56.5 -138q0 -94 -81 -151.5t-212 -57.5q-120 0 -202 37t-138 121zM563 -23l924 1280h285l-930 -1280h-279zM1417 129v166l371 385h182v-395h92 v-156h-92v-129h-182v129h-371zM1608 285h180v184z" />
<glyph unicode="&#xbf;" horiz-adv-x="1050" d="M98 14q0 89 41.5 152t116.5 121q79 59 125.5 112.5t46.5 110.5v25h291v-41q0 -103 -43 -168t-144 -136q-52 -37 -77 -67t-25 -70q0 -47 37.5 -71.5t105.5 -24.5q82 0 153.5 36.5t113.5 102.5l215 -172q-73 -125 -206.5 -191.5t-295.5 -66.5q-216 0 -335.5 96.5 t-119.5 251.5zM389 813q0 75 50.5 124.5t131.5 49.5q80 0 129.5 -49.5t49.5 -124.5q0 -73 -50.5 -122.5t-130.5 -49.5t-130 49.5t-50 122.5z" />
<glyph unicode="&#xc0;" horiz-adv-x="1382" d="M14 0l490 1278h373l491 -1278h-334l-98 285h-500l-98 -285h-324zM362 1556l89 205l503 -209l-80 -180zM518 549h332l-164 461z" />
<glyph unicode="&#xc1;" horiz-adv-x="1382" d="M14 0l490 1278h373l491 -1278h-334l-98 285h-500l-98 -285h-324zM430 1552l502 209l90 -205l-512 -184zM518 549h332l-164 461z" />
<glyph unicode="&#xc2;" horiz-adv-x="1382" d="M14 0l490 1278h373l491 -1278h-334l-98 285h-500l-98 -285h-324zM344 1501l260 213q44 35 90 35t90 -35l254 -215l-106 -127l-240 174l-241 -174zM518 549h332l-164 461z" />
<glyph unicode="&#xc3;" horiz-adv-x="1382" d="M14 0l490 1278h373l491 -1278h-334l-98 285h-500l-98 -285h-324zM303 1507q101 164 256 164q55 0 92 -13.5t78 -39.5q61 -41 113 -41q37 0 64 17t57 57l127 -109q-101 -164 -261 -164q-69 0 -159 54q-66 41 -107 41q-47 0 -74 -17t-59 -59zM518 549h332l-164 461z" />
<glyph unicode="&#xc4;" horiz-adv-x="1382" d="M14 0l490 1278h373l491 -1278h-334l-98 285h-500l-98 -285h-324zM307 1561q0 66 45 110.5t117 44.5q75 0 119.5 -44.5t44.5 -110.5q0 -70 -45 -115t-119 -45t-118 45t-44 115zM518 549h332l-164 461zM752 1561q0 66 45 110.5t118 44.5q72 0 117 -44.5t45 -110.5 q0 -70 -45.5 -115t-118.5 -45q-74 0 -117.5 45t-43.5 115z" />
<glyph unicode="&#xc7;" horiz-adv-x="1277" d="M80 639q0 97 22.5 189.5t73.5 178.5t124 150t183 102.5t242 38.5q165 0 299.5 -72t206.5 -220l-221 -168q-95 161 -283 161q-154 0 -235.5 -101t-81.5 -259q0 -161 82.5 -262t228.5 -101q99 0 174 45t121 123l221 -170q-106 -221 -354 -278q69 -72 69 -158 q0 -101 -76 -162t-208 -61q-82 0 -154.5 29.5t-118.5 81.5l105 135q71 -54 129 -54q100 0 100 80q0 77 -96 95q-263 26 -408 202.5t-145 454.5z" />
<glyph unicode="&#xc8;" d="M141 0v1278h957v-285h-637v-209h559v-270h-559v-229h655v-285h-975zM311 1556l88 205l504 -209l-80 -180z" />
<glyph unicode="&#xc9;" d="M141 0v1278h957v-285h-637v-209h559v-270h-559v-229h655v-285h-975zM379 1552l502 209l90 -205l-512 -184z" />
<glyph unicode="&#xca;" d="M141 0v1278h957v-285h-637v-209h559v-270h-559v-229h655v-285h-975zM293 1501l260 213q44 35 90 35t90 -35l254 -215l-106 -127l-240 174l-242 -174z" />
<glyph unicode="&#xcb;" d="M141 0v1278h957v-285h-637v-209h559v-270h-559v-229h655v-285h-975zM256 1561q0 66 45 110.5t117 44.5q75 0 119.5 -44.5t44.5 -110.5q0 -70 -45 -115t-119 -45t-118 45t-44 115zM700 1561q0 66 45.5 110.5t118.5 44.5q72 0 117 -44.5t45 -110.5q0 -70 -45.5 -115 t-118.5 -45q-74 0 -118 45t-44 115z" />
<glyph unicode="&#xcc;" horiz-adv-x="610" d="M-23 1556l89 205l503 -209l-80 -180zM141 0v1278h328v-1278h-328z" />
<glyph unicode="&#xcd;" horiz-adv-x="610" d="M45 1552l502 209l90 -205l-512 -184zM141 0v1278h328v-1278h-328z" />
<glyph unicode="&#xce;" horiz-adv-x="610" d="M-41 1501l260 213q44 35 90 35t90 -35l254 -215l-106 -127l-240 174l-241 -174zM141 0v1278h328v-1278h-328z" />
<glyph unicode="&#xcf;" horiz-adv-x="610" d="M-78 1561q0 66 45 110.5t117 44.5q75 0 119.5 -44.5t44.5 -110.5q0 -70 -45 -115t-119 -45t-118 45t-44 115zM141 0v1278h328v-1278h-328zM367 1561q0 66 45 110.5t118 44.5q72 0 117 -44.5t45 -110.5q0 -70 -45.5 -115t-118.5 -45q-74 0 -117.5 45t-43.5 115z" />
<glyph unicode="&#xd1;" horiz-adv-x="1472" d="M141 0v1278h324l555 -789v789h311v-1278h-323l-555 782v-782h-312zM348 1507q101 164 256 164q55 0 92 -13.5t78 -39.5q61 -41 113 -41q37 0 64 17t57 57l127 -109q-101 -164 -261 -164q-69 0 -159 54q-66 41 -107 41q-47 0 -74 -17t-59 -59z" />
<glyph unicode="&#xd2;" horiz-adv-x="1464" d="M80 641q0 138 48 259t132.5 209t207 138.5t265.5 50.5q147 0 269.5 -49.5t206 -136.5t129.5 -208.5t46 -262.5q0 -139 -47.5 -261.5t-131.5 -211.5t-206.5 -140t-265.5 -51q-149 0 -272.5 50t-206.5 139t-128.5 211t-45.5 264zM403 1556l89 205l503 -209l-80 -180z M410 639q0 -165 89 -264t232 -99q142 0 233 99t91 264t-89 262.5t-231 97.5q-143 0 -234 -97.5t-91 -262.5z" />
<glyph unicode="&#xd3;" horiz-adv-x="1464" d="M80 641q0 138 48 259t132.5 209t207 138.5t265.5 50.5q147 0 269.5 -49.5t206 -136.5t129.5 -208.5t46 -262.5q0 -139 -47.5 -261.5t-131.5 -211.5t-206.5 -140t-265.5 -51q-149 0 -272.5 50t-206.5 139t-128.5 211t-45.5 264zM410 639q0 -165 89 -264t232 -99 q142 0 233 99t91 264t-89 262.5t-231 97.5q-143 0 -234 -97.5t-91 -262.5zM471 1552l502 209l90 -205l-512 -184z" />
<glyph unicode="&#xd4;" horiz-adv-x="1464" d="M80 641q0 138 48 259t132.5 209t207 138.5t265.5 50.5q147 0 269.5 -49.5t206 -136.5t129.5 -208.5t46 -262.5q0 -139 -47.5 -261.5t-131.5 -211.5t-206.5 -140t-265.5 -51q-149 0 -272.5 50t-206.5 139t-128.5 211t-45.5 264zM385 1501l260 213q44 35 90 35t90 -35 l254 -215l-106 -127l-240 174l-241 -174zM410 639q0 -165 89 -264t232 -99q142 0 233 99t91 264t-89 262.5t-231 97.5q-143 0 -234 -97.5t-91 -262.5z" />
<glyph unicode="&#xd5;" horiz-adv-x="1464" d="M80 641q0 138 48 259t132.5 209t207 138.5t265.5 50.5q147 0 269.5 -49.5t206 -136.5t129.5 -208.5t46 -262.5q0 -139 -47.5 -261.5t-131.5 -211.5t-206.5 -140t-265.5 -51q-149 0 -272.5 50t-206.5 139t-128.5 211t-45.5 264zM344 1507q101 164 256 164q55 0 92 -13.5 t78 -39.5q61 -41 113 -41q37 0 64 17t57 57l126 -109q-101 -164 -260 -164q-69 0 -159 54q-66 41 -107 41q-47 0 -74 -17t-59 -59zM410 639q0 -165 89 -264t232 -99q142 0 233 99t91 264t-89 262.5t-231 97.5q-143 0 -234 -97.5t-91 -262.5z" />
<glyph unicode="&#xd6;" horiz-adv-x="1464" d="M80 641q0 138 48 259t132.5 209t207 138.5t265.5 50.5q147 0 269.5 -49.5t206 -136.5t129.5 -208.5t46 -262.5q0 -139 -47.5 -261.5t-131.5 -211.5t-206.5 -140t-265.5 -51q-149 0 -272.5 50t-206.5 139t-128.5 211t-45.5 264zM348 1561q0 66 45 110.5t117 44.5 q75 0 119.5 -44.5t44.5 -110.5q0 -70 -45 -115t-119 -45t-118 45t-44 115zM410 639q0 -165 89 -264t232 -99q142 0 233 99t91 264t-89 262.5t-231 97.5q-143 0 -234 -97.5t-91 -262.5zM793 1561q0 66 45 110.5t118 44.5q72 0 117 -44.5t45 -110.5q0 -70 -45.5 -115 t-118.5 -45q-74 0 -117.5 45t-43.5 115z" />
<glyph unicode="&#xd7;" d="M135 397l234 234l-234 231l207 205l231 -231l232 231l207 -205l-232 -231l232 -234l-207 -204l-232 231l-231 -231z" />
<glyph unicode="&#xd9;" horiz-adv-x="1425" d="M123 637v641h326v-651q0 -180 63 -265.5t199 -85.5q137 0 201.5 85t64.5 266v651h326v-641q0 -307 -152.5 -483.5t-437.5 -176.5q-296 0 -443 172.5t-147 487.5zM383 1556l88 205l504 -209l-80 -180z" />
<glyph unicode="&#xda;" horiz-adv-x="1425" d="M123 637v641h326v-651q0 -180 63 -265.5t199 -85.5q137 0 201.5 85t64.5 266v651h326v-641q0 -307 -152.5 -483.5t-437.5 -176.5q-296 0 -443 172.5t-147 487.5zM451 1552l501 209l90 -205l-512 -184z" />
<glyph unicode="&#xdb;" horiz-adv-x="1425" d="M123 637v641h326v-651q0 -180 63 -265.5t199 -85.5q137 0 201.5 85t64.5 266v651h326v-641q0 -307 -152.5 -483.5t-437.5 -176.5q-296 0 -443 172.5t-147 487.5zM365 1501l260 213q44 35 90 35t90 -35l254 -215l-107 -127l-239 174l-242 -174z" />
<glyph unicode="&#xdc;" horiz-adv-x="1425" d="M123 637v641h326v-651q0 -180 63 -265.5t199 -85.5q137 0 201.5 85t64.5 266v651h326v-641q0 -307 -152.5 -483.5t-437.5 -176.5q-296 0 -443 172.5t-147 487.5zM328 1561q0 66 44.5 110.5t116.5 44.5q75 0 119.5 -44.5t44.5 -110.5q0 -70 -45 -115t-119 -45t-117.5 45 t-43.5 115zM772 1561q0 66 45.5 110.5t118.5 44.5q72 0 117 -44.5t45 -110.5q0 -70 -45.5 -115t-118.5 -45q-74 0 -118 45t-44 115z" />
<glyph unicode="&#xdf;" horiz-adv-x="1308" d="M117 0v907q0 219 147 355.5t377 136.5t365 -103t135 -266q0 -189 -154 -287q121 -46 192.5 -139t71.5 -221q0 -172 -115.5 -287.5t-304.5 -115.5q-206 0 -344 135l131 178q74 -57 168 -57q78 0 123 44t45 115q0 185 -249 185h-134v243h93q84 0 135 46.5t51 121.5 q0 72 -50.5 115t-144.5 43q-104 0 -167.5 -65t-63.5 -185v-899h-307z" />
<glyph unicode="&#xe0;" horiz-adv-x="1128" d="M68 279q0 58 22 110t67 97t124.5 71.5t183.5 26.5q150 0 260 -39v8q0 97 -54.5 147t-152.5 50q-80 0 -144.5 -18.5t-133.5 -72.5l-144 181q104 88 213.5 124.5t253.5 36.5q207 0 334 -118.5t127 -358.5v-524h-240q-24 62 -28 133q-121 -156 -332 -156q-95 0 -166.5 26.5 t-111.5 71t-59 96t-19 108.5zM188 1223l78 204l504 -178l-70 -180zM360 295q0 -44 33.5 -68t91.5 -24q95 0 151.5 43t72.5 112l2 13q-98 24 -191 24q-160 0 -160 -100z" />
<glyph unicode="&#xe1;" horiz-adv-x="1128" d="M68 279q0 58 22 110t67 97t124.5 71.5t183.5 26.5q150 0 260 -39v8q0 97 -54.5 147t-152.5 50q-80 0 -144.5 -18.5t-133.5 -72.5l-144 181q104 88 213.5 124.5t253.5 36.5q207 0 334 -118.5t127 -358.5v-524h-240q-24 62 -28 133q-121 -156 -332 -156q-95 0 -166.5 26.5 t-111.5 71t-59 96t-19 108.5zM305 1249l504 178l78 -204l-512 -154zM360 295q0 -44 33.5 -68t91.5 -24q95 0 151.5 43t72.5 112l2 13q-98 24 -191 24q-160 0 -160 -100z" />
<glyph unicode="&#xe2;" horiz-adv-x="1128" d="M68 279q0 58 22 110t67 97t124.5 71.5t183.5 26.5q150 0 260 -39v8q0 97 -54.5 147t-152.5 50q-80 0 -144.5 -18.5t-133.5 -72.5l-144 181q104 88 213.5 124.5t253.5 36.5q207 0 334 -118.5t127 -358.5v-524h-240q-24 62 -28 133q-121 -156 -332 -156q-95 0 -166.5 26.5 t-111.5 71t-59 96t-19 108.5zM190 1208l263 181q52 36 92 36q43 0 92 -36l256 -183l-109 -139l-241 160l-244 -160zM360 295q0 -44 33.5 -68t91.5 -24q95 0 151.5 43t72.5 112l2 13q-98 24 -191 24q-160 0 -160 -100z" />
<glyph unicode="&#xe3;" horiz-adv-x="1128" d="M68 279q0 58 22 110t67 97t124.5 71.5t183.5 26.5q150 0 260 -39v8q0 97 -54.5 147t-152.5 50q-80 0 -144.5 -18.5t-133.5 -72.5l-144 181q104 88 213.5 124.5t253.5 36.5q207 0 334 -118.5t127 -358.5v-524h-240q-24 62 -28 133q-121 -156 -332 -156q-95 0 -166.5 26.5 t-111.5 71t-59 96t-19 108.5zM141 1219q107 170 262 170q58 0 97 -15t80 -43q61 -41 116 -41q38 0 65 18t60 60l131 -115q-106 -168 -268 -168q-85 0 -166 56q-64 43 -108 43q-49 0 -77.5 -18t-60.5 -62zM360 295q0 -44 33.5 -68t91.5 -24q95 0 151.5 43t72.5 112l2 13 q-98 24 -191 24q-160 0 -160 -100z" />
<glyph unicode="&#xe4;" horiz-adv-x="1128" d="M68 279q0 58 22 110t67 97t124.5 71.5t183.5 26.5q150 0 260 -39v8q0 97 -54.5 147t-152.5 50q-80 0 -144.5 -18.5t-133.5 -72.5l-144 181q104 88 213.5 124.5t253.5 36.5q207 0 334 -118.5t127 -358.5v-524h-240q-24 62 -28 133q-121 -156 -332 -156q-95 0 -166.5 26.5 t-111.5 71t-59 96t-19 108.5zM160 1233q0 64 44.5 108.5t117.5 44.5t117 -44.5t44 -108.5q0 -67 -43.5 -110.5t-117.5 -43.5q-75 0 -118.5 43t-43.5 111zM360 295q0 -44 33.5 -68t91.5 -24q95 0 151.5 43t72.5 112l2 13q-98 24 -191 24q-160 0 -160 -100zM602 1233 q0 64 44.5 108.5t115.5 44.5q74 0 119 -44.5t45 -108.5q0 -67 -45 -110.5t-119 -43.5t-117 43.5t-43 110.5z" />
<glyph unicode="&#xe7;" horiz-adv-x="1050" d="M78 492q0 143 65 259.5t181 183t260 66.5q284 0 411 -239l-188 -137q-40 55 -82 79.5t-113 24.5q-103 0 -159 -66.5t-56 -170.5q0 -105 57 -173.5t162 -68.5q70 0 116.5 30t88.5 87l193 -138q-99 -178 -269 -229q70 -73 70 -156q0 -101 -74 -161t-206 -60 q-79 0 -150.5 30t-114.5 81l103 131q66 -53 123 -53q100 0 100 79q0 70 -86 91q-201 23 -316.5 163.5t-115.5 346.5z" />
<glyph unicode="&#xe8;" horiz-adv-x="1130" d="M78 489q0 135 59 250.5t175 188.5t266 73q121 0 214 -39.5t149.5 -111t85 -166.5t28.5 -211v-51h-676q19 -91 84.5 -144t161.5 -53q94 0 153.5 28.5t110.5 88.5l168 -135q-68 -116 -188.5 -173t-272.5 -57q-242 0 -380 141t-138 371zM223 1223l78 204l504 -178l-70 -180z M383 606h377q-7 82 -52.5 123t-121.5 41q-166 0 -203 -164z" />
<glyph unicode="&#xe9;" horiz-adv-x="1130" d="M78 489q0 135 59 250.5t175 188.5t266 73q121 0 214 -39.5t149.5 -111t85 -166.5t28.5 -211v-51h-676q19 -91 84.5 -144t161.5 -53q94 0 153.5 28.5t110.5 88.5l168 -135q-68 -116 -188.5 -173t-272.5 -57q-242 0 -380 141t-138 371zM340 1249l504 178l78 -204l-512 -154 zM383 606h377q-7 82 -52.5 123t-121.5 41q-166 0 -203 -164z" />
<glyph unicode="&#xea;" horiz-adv-x="1130" d="M78 489q0 135 59 250.5t175 188.5t266 73q121 0 214 -39.5t149.5 -111t85 -166.5t28.5 -211v-51h-676q19 -91 84.5 -144t161.5 -53q94 0 153.5 28.5t110.5 88.5l168 -135q-68 -116 -188.5 -173t-272.5 -57q-242 0 -380 141t-138 371zM225 1208l262 181q52 36 93 36 q43 0 92 -36l256 -183l-109 -139l-241 160l-244 -160zM383 606h377q-7 82 -52.5 123t-121.5 41q-166 0 -203 -164z" />
<glyph unicode="&#xeb;" horiz-adv-x="1130" d="M78 489q0 135 59 250.5t175 188.5t266 73q121 0 214 -39.5t149.5 -111t85 -166.5t28.5 -211v-51h-676q19 -91 84.5 -144t161.5 -53q94 0 153.5 28.5t110.5 88.5l168 -135q-68 -116 -188.5 -173t-272.5 -57q-242 0 -380 141t-138 371zM195 1233q0 64 44 108.5t117 44.5 t117.5 -44.5t44.5 -108.5q0 -67 -44 -110.5t-118 -43.5q-75 0 -118 43t-43 111zM383 606h377q-7 82 -52.5 123t-121.5 41q-166 0 -203 -164zM637 1233q0 64 44.5 108.5t115.5 44.5q74 0 119 -44.5t45 -108.5q0 -67 -45 -110.5t-119 -43.5q-73 0 -116.5 43.5t-43.5 110.5z " />
<glyph unicode="&#xec;" horiz-adv-x="552" d="M-78 1223l78 204l504 -178l-70 -180zM117 0v979h319v-979h-319z" />
<glyph unicode="&#xed;" horiz-adv-x="552" d="M39 1249l504 178l78 -204l-512 -154zM117 0v979h319v-979h-319z" />
<glyph unicode="&#xee;" horiz-adv-x="552" d="M-76 1208l262 181q52 36 93 36q43 0 92 -36l256 -183l-109 -139l-242 160l-243 -160zM117 0v979h319v-979h-319z" />
<glyph unicode="&#xef;" horiz-adv-x="552" d="M-106 1233q0 64 44 108.5t117 44.5t117.5 -44.5t44.5 -108.5q0 -67 -44 -110.5t-118 -43.5q-75 0 -118 43t-43 111zM117 0v979h319v-979h-319zM336 1233q0 64 44.5 108.5t115.5 44.5q74 0 118.5 -44.5t44.5 -108.5q0 -67 -44.5 -110.5t-118.5 -43.5t-117 43.5t-43 110.5z " />
<glyph unicode="&#xf1;" horiz-adv-x="1218" d="M117 0v979h264q23 -60 29 -127q124 149 321 149q185 0 284 -116.5t99 -339.5v-545h-319v555q0 86 -39.5 130t-112.5 44q-96 0 -151.5 -69t-55.5 -209v-451h-319zM248 1219q107 170 262 170q40 0 75 -9.5t54.5 -20t46.5 -28.5q61 -41 117 -41q38 0 65 18t60 60l131 -115 q-106 -168 -268 -168q-85 0 -166 56q-64 43 -109 43q-49 0 -77 -18t-60 -62z" />
<glyph unicode="&#xf2;" horiz-adv-x="1214" d="M78 492q0 100 38 192.5t105 162.5t168 112t219 42q161 0 283 -69t184 -183.5t62 -256.5q0 -101 -37.5 -194t-104.5 -164t-168 -114t-219 -43q-121 0 -222 40.5t-168 110.5t-103.5 164t-36.5 200zM254 1223l78 204l504 -178l-70 -180zM397 492q0 -100 52.5 -171t158.5 -71 q105 0 156 70.5t51 171.5q0 62 -19.5 113.5t-67.5 87.5t-118 36q-107 0 -160 -69.5t-53 -167.5z" />
<glyph unicode="&#xf3;" horiz-adv-x="1214" d="M78 492q0 100 38 192.5t105 162.5t168 112t219 42q161 0 283 -69t184 -183.5t62 -256.5q0 -101 -37.5 -194t-104.5 -164t-168 -114t-219 -43q-121 0 -222 40.5t-168 110.5t-103.5 164t-36.5 200zM371 1249l503 178l78 -204l-512 -154zM397 492q0 -100 52.5 -171 t158.5 -71q105 0 156 70.5t51 171.5q0 62 -19.5 113.5t-67.5 87.5t-118 36q-107 0 -160 -69.5t-53 -167.5z" />
<glyph unicode="&#xf4;" horiz-adv-x="1214" d="M78 492q0 100 38 192.5t105 162.5t168 112t219 42q161 0 283 -69t184 -183.5t62 -256.5q0 -101 -37.5 -194t-104.5 -164t-168 -114t-219 -43q-121 0 -222 40.5t-168 110.5t-103.5 164t-36.5 200zM256 1208l262 181q52 36 92 36q43 0 92 -36l256 -183l-108 -139l-242 160 l-243 -160zM397 492q0 -100 52.5 -171t158.5 -71q105 0 156 70.5t51 171.5q0 62 -19.5 113.5t-67.5 87.5t-118 36q-107 0 -160 -69.5t-53 -167.5z" />
<glyph unicode="&#xf5;" horiz-adv-x="1214" d="M78 492q0 100 38 192.5t105 162.5t168 112t219 42q161 0 283 -69t184 -183.5t62 -256.5q0 -101 -37.5 -194t-104.5 -164t-168 -114t-219 -43q-121 0 -222 40.5t-168 110.5t-103.5 164t-36.5 200zM207 1219q107 170 262 170q40 0 75 -9.5t54.5 -20t46.5 -28.5 q61 -41 117 -41q38 0 65 18t60 60l131 -115q-106 -168 -268 -168q-85 0 -166 56q-64 43 -109 43q-49 0 -77 -18t-60 -62zM397 492q0 -100 52.5 -171t158.5 -71q105 0 156 70.5t51 171.5q0 62 -19.5 113.5t-67.5 87.5t-118 36q-107 0 -160 -69.5t-53 -167.5z" />
<glyph unicode="&#xf6;" horiz-adv-x="1214" d="M78 492q0 100 38 192.5t105 162.5t168 112t219 42q161 0 283 -69t184 -183.5t62 -256.5q0 -101 -37.5 -194t-104.5 -164t-168 -114t-219 -43q-121 0 -222 40.5t-168 110.5t-103.5 164t-36.5 200zM225 1233q0 64 44.5 108.5t117.5 44.5t117.5 -44.5t44.5 -108.5 q0 -67 -44 -110.5t-118 -43.5q-75 0 -118.5 43t-43.5 111zM397 492q0 -100 52.5 -171t158.5 -71q105 0 156 70.5t51 171.5q0 62 -19.5 113.5t-67.5 87.5t-118 36q-107 0 -160 -69.5t-53 -167.5zM668 1233q0 64 44 108.5t115 44.5q74 0 119 -44.5t45 -108.5q0 -67 -45 -110.5 t-119 -43.5q-73 0 -116 43t-43 111z" />
<glyph unicode="&#xf7;" d="M145 487v287h897v-287h-897zM434 244q0 67 44.5 110t115.5 43q70 0 114 -43t44 -110q0 -65 -44.5 -108.5t-115.5 -43.5q-70 0 -114 43.5t-44 108.5zM434 1016q0 65 44.5 108t115.5 43q70 0 114 -43t44 -108q0 -67 -44.5 -110.5t-115.5 -43.5q-70 0 -114 43.5t-44 110.5z " />
<glyph unicode="&#xf9;" horiz-adv-x="1212" d="M111 432v547h321v-555q0 -174 146 -174q95 0 147.5 68.5t52.5 207.5v453h320v-979h-262q-18 37 -33 125q-119 -148 -314 -148q-183 0 -280.5 117t-97.5 338zM248 1223l78 204l503 -178l-69 -180z" />
<glyph unicode="&#xfa;" horiz-adv-x="1212" d="M111 432v547h321v-555q0 -174 146 -174q95 0 147.5 68.5t52.5 207.5v453h320v-979h-262q-18 37 -33 125q-119 -148 -314 -148q-183 0 -280.5 117t-97.5 338zM365 1249l503 178l78 -204l-512 -154z" />
<glyph unicode="&#xfb;" horiz-adv-x="1212" d="M111 432v547h321v-555q0 -174 146 -174q95 0 147.5 68.5t52.5 207.5v453h320v-979h-262q-18 37 -33 125q-119 -148 -314 -148q-183 0 -280.5 117t-97.5 338zM250 1208l262 181q52 36 92 36q43 0 92 -36l256 -183l-108 -139l-242 160l-244 -160z" />
<glyph unicode="&#xfc;" horiz-adv-x="1212" d="M111 432v547h321v-555q0 -174 146 -174q95 0 147.5 68.5t52.5 207.5v453h320v-979h-262q-18 37 -33 125q-119 -148 -314 -148q-183 0 -280.5 117t-97.5 338zM219 1233q0 64 44.5 108.5t117.5 44.5t117.5 -44.5t44.5 -108.5q0 -67 -44 -110.5t-118 -43.5q-75 0 -118.5 43 t-43.5 111zM662 1233q0 64 44 108.5t115 44.5q74 0 119 -44.5t45 -108.5q0 -67 -45 -110.5t-119 -43.5q-73 0 -116 43t-43 111z" />
<glyph unicode="&#x2c6;" horiz-adv-x="1024" d="M160 1208l262 181q52 36 92 36q43 0 92 -36l256 -183l-108 -139l-242 160l-244 -160z" />
<glyph unicode="&#x2dc;" horiz-adv-x="1024" d="M106 1219q107 170 263 170q40 0 75 -9.5t54.5 -20t46.5 -28.5q61 -41 117 -41q38 0 64.5 18t59.5 60l132 -115q-106 -168 -269 -168q-85 0 -166 56q-64 43 -108 43q-49 0 -77 -18t-60 -62z" />
<glyph unicode="&#x2000;" horiz-adv-x="880" />
<glyph unicode="&#x2001;" horiz-adv-x="1761" />
<glyph unicode="&#x2002;" horiz-adv-x="880" />
<glyph unicode="&#x2003;" horiz-adv-x="1761" />
<glyph unicode="&#x2004;" horiz-adv-x="587" />
<glyph unicode="&#x2005;" horiz-adv-x="440" />
<glyph unicode="&#x2006;" horiz-adv-x="293" />
<glyph unicode="&#x2007;" horiz-adv-x="293" />
<glyph unicode="&#x2008;" horiz-adv-x="220" />
<glyph unicode="&#x2009;" horiz-adv-x="352" />
<glyph unicode="&#x200a;" horiz-adv-x="97" />
<glyph unicode="&#x2010;" horiz-adv-x="1032" d="M127 395v289h778v-289h-778z" />
<glyph unicode="&#x2011;" horiz-adv-x="1032" d="M127 395v289h778v-289h-778z" />
<glyph unicode="&#x2012;" horiz-adv-x="1032" d="M127 395v289h778v-289h-778z" />
<glyph unicode="&#x2013;" horiz-adv-x="1024" d="M0 395v289h1024v-289h-1024z" />
<glyph unicode="&#x2014;" horiz-adv-x="2048" d="M0 395v289h2048v-289h-2048z" />
<glyph unicode="&#x2018;" horiz-adv-x="610" d="M88 739q0 186 92.5 355t239.5 241l141 -176q-188 -122 -188 -420h-285z" />
<glyph unicode="&#x2019;" horiz-adv-x="610" d="M49 858q189 123 189 420h286q0 -186 -93 -355.5t-241 -240.5z" />
<glyph unicode="&#x201a;" horiz-adv-x="524" d="M-45 -127q188 122 188 420h287q0 -186 -93 -355.5t-241 -240.5z" />
<glyph unicode="&#x201c;" horiz-adv-x="1067" d="M88 739q0 186 92.5 355t239.5 241l141 -176q-188 -122 -188 -420h-285zM545 739q0 186 92.5 355t239.5 241l141 -176q-187 -124 -187 -420h-286z" />
<glyph unicode="&#x201d;" horiz-adv-x="1067" d="M49 858q189 123 189 420h286q0 -186 -93 -355.5t-241 -240.5zM506 858q188 122 188 420h287q0 -186 -92.5 -355.5t-239.5 -240.5z" />
<glyph unicode="&#x201e;" horiz-adv-x="980" d="M-45 -127q188 122 188 420h287q0 -186 -93 -355.5t-241 -240.5zM412 -127q188 122 188 420h287q0 -186 -92.5 -355.5t-239.5 -240.5z" />
<glyph unicode="&#x2022;" horiz-adv-x="866" d="M168 659q0 108 74 187.5t194 79.5t192 -77.5t72 -189.5q0 -108 -73.5 -188t-190.5 -80q-124 0 -196 77t-72 191z" />
<glyph unicode="&#x2026;" horiz-adv-x="1622" d="M92 152q0 73 50 122.5t130 49.5t130.5 -49.5t50.5 -122.5q0 -75 -51 -125t-132 -50q-80 0 -129 50t-49 125zM631 152q0 73 50 122.5t130 49.5t130 -49.5t50 -122.5q0 -75 -50.5 -125t-131.5 -50q-80 0 -129 50t-49 125zM1171 152q0 73 50.5 122.5t130.5 49.5t130 -49.5 t50 -122.5q0 -75 -50.5 -125t-131.5 -50q-80 0 -129.5 50t-49.5 125z" />
<glyph unicode="&#x202f;" horiz-adv-x="352" />
<glyph unicode="&#x2039;" horiz-adv-x="706" d="M80 481l248 379h321l-252 -379l252 -377h-321z" />
<glyph unicode="&#x203a;" horiz-adv-x="706" d="M59 104l252 377l-252 379h320l250 -379l-250 -377h-320z" />
<glyph unicode="&#x205f;" horiz-adv-x="440" />
<glyph unicode="&#x20ac;" d="M27 408v165h112q-2 16 -2 56q0 35 2 53h-112v164h141q26 90 70 165.5t107 136.5t151.5 95.5t191.5 34.5q316 0 457 -281l-211 -139q-49 79 -99.5 110t-138.5 31q-76 0 -133 -40.5t-90 -112.5h320l-48 -164h-313q-2 -16 -2 -51q0 -42 2 -58h297l-45 -165h-207 q33 -71 89.5 -110.5t127.5 -39.5q87 0 141.5 36t106.5 118l211 -146q-73 -145 -195 -217t-276 -72q-197 0 -333.5 114.5t-186.5 316.5h-135z" />
<glyph unicode="&#x2122;" horiz-adv-x="1906" d="M47 1087v191h729v-191h-256v-587h-215v587h-258zM877 500l49 778h213l200 -352l197 352h215l49 -778h-209l-26 473l-150 -303h-153l-150 295l-25 -465h-210z" />
<glyph unicode="&#x25fc;" horiz-adv-x="983" d="M0 0v983h983v-983h-983z" />
</font>
</defs>
</svg>
