<?xml version="1.0" standalone="no"?>
<!DOCTYPE svg PUBLIC "-//W3C//DTD SVG 1.1//EN" "http://www.w3.org/Graphics/SVG/1.1/DTD/svg11.dtd" >
<svg xmlns="http://www.w3.org/2000/svg" xmlns:xlink="http://www.w3.org/1999/xlink" version="1.1">
<metadata></metadata>
<defs>
<font id="magalu_display_alpharegular" horiz-adv-x="1187" >
<font-face units-per-em="2048" ascent="1638" descent="-410" />
<missing-glyph horiz-adv-x="475" />
<glyph unicode="&#xfb01;" horiz-adv-x="1323" d="M51 807v149h197v5q0 192 100 296.5t277 104.5q148 0 256 -105l-74 -108q-82 65 -172 65q-105 0 -162 -66t-57 -177v-15h399v-149h-399v-807h-168v807h-197zM991 1206q0 48 32 80.5t81 32.5q47 0 77.5 -32.5t30.5 -80.5t-30.5 -80t-77.5 -32q-49 0 -81 32t-32 80zM1018 0 v956h168v-956h-168z" />
<glyph unicode="&#xfb02;" horiz-adv-x="1323" d="M51 807v149h197v5q0 192 100 296.5t277 104.5q148 0 256 -105l-74 -108q-82 65 -172 65q-105 0 -162 -66t-57 -177v-15h399v-149h-399v-807h-168v807h-197zM1018 0v1319h168v-1319h-168z" />
<glyph horiz-adv-x="0" />
<glyph horiz-adv-x="682" />
<glyph unicode=" "  horiz-adv-x="475" />
<glyph unicode="&#x09;" horiz-adv-x="475" />
<glyph unicode="&#xa0;" horiz-adv-x="475" />
<glyph unicode="!" horiz-adv-x="557" d="M164 92q0 50 32 82.5t83 32.5t82.5 -32.5t31.5 -82.5t-31.5 -82.5t-82.5 -32.5t-83 32.5t-32 82.5zM184 1278h189l-15 -913h-159z" />
<glyph unicode="&#x22;" horiz-adv-x="755" d="M139 1278h183l-11 -465h-161zM434 1278h182l-10 -465h-162z" />
<glyph unicode="#" d="M74 309v150h207l41 336h-248v149h264l35 295h149l-35 -295h275l35 295h149l-35 -295h191v-149h-207l-41 -336h248v-150h-264l-35 -291h-150l35 291h-274l-35 -291h-150l35 291h-190zM430 459h275l40 336h-274z" />
<glyph unicode="$" d="M80 258l104 104q87 -100 191.5 -148t238.5 -48q137 0 211 46.5t74 131.5q0 96 -62.5 141t-244.5 80q-57 11 -94.5 19.5t-85 21.5t-77.5 26.5t-64.5 33t-55 43.5t-38.5 54.5t-26 70t-8 86.5q0 129 102 216.5t267 104.5v197h174v-199q221 -27 363 -205l-111 -94 q-86 93 -163.5 123.5t-190.5 30.5q-132 0 -204.5 -46t-72.5 -128q0 -22 4 -40t10 -32.5t20 -27t25.5 -21.5t36 -18.5t42 -15.5t53 -14t59.5 -13.5t70 -14.5q83 -16 141.5 -33t118.5 -47t96 -68.5t59 -98t23 -136.5q0 -136 -101 -221.5t-278 -100.5v-223h-174v225 q-134 15 -245 76t-187 162z" />
<glyph unicode="%" horiz-adv-x="1591" d="M61 932q0 145 83.5 240.5t232.5 95.5q154 0 233.5 -93.5t79.5 -242.5q0 -148 -83 -244t-230 -96q-156 0 -236 94.5t-80 245.5zM203 932q0 -100 42.5 -155.5t131.5 -55.5q86 0 128 56t42 155q0 98 -41.5 153.5t-128.5 55.5q-88 0 -131 -55.5t-43 -153.5zM238 0l942 1257 h180l-942 -1257h-180zM901 225q0 145 83.5 240.5t232.5 95.5q154 0 233.5 -93.5t79.5 -242.5q0 -148 -83 -244t-230 -96q-156 0 -236 94.5t-80 245.5zM1042 225q0 -99 43 -155t132 -56q86 0 127.5 56t41.5 155q0 209 -169 209q-88 0 -131.5 -56t-43.5 -153z" />
<glyph unicode="&#x26;" horiz-adv-x="1275" d="M102 360q0 128 75.5 223t180.5 138q-42 57 -62 111t-20 126q0 139 111.5 239.5t267.5 100.5q120 0 201.5 -43.5t149.5 -128.5l-111 -98q-43 44 -69 64.5t-67.5 34.5t-99.5 14q-87 0 -151 -50t-64 -141q0 -43 28.5 -96.5t62.5 -95t116 -137.5l301 -349q60 73 60 160 q0 152 -131 256l102 94q92 -60 141.5 -153.5t49.5 -186.5q0 -166 -119 -288l94 -111l-125 -100l-96 112q-146 -78 -318 -78q-235 0 -371.5 106.5t-136.5 276.5zM274 381q0 -116 96 -183t242 -67q118 0 213 45l-309 361q-5 7 -63 73q-78 -23 -128.5 -84.5t-50.5 -144.5z" />
<glyph unicode="'" horiz-adv-x="460" d="M139 1278h183l-11 -465h-161z" />
<glyph unicode="(" horiz-adv-x="698" d="M164 532q0 252 108 497t258 380l127 -86q-319 -337 -319 -791q0 -453 319 -790l-127 -86q-150 136 -258 380t-108 496z" />
<glyph unicode=")" horiz-adv-x="698" d="M41 -258q319 337 319 790q0 454 -319 791l127 86q150 -136 258.5 -380.5t108.5 -496.5t-108.5 -496t-258.5 -380z" />
<glyph unicode="*" horiz-adv-x="860" d="M72 827l231 121l-231 121l73 129l222 -139l-11 260h148l-10 -260l221 139l73 -129l-231 -121l231 -121l-73 -129l-221 140l10 -260h-148l11 260l-222 -140z" />
<glyph unicode="+" d="M164 549v162h352v362h158v-362h350v-162h-350v-361h-158v361h-352z" />
<glyph unicode="," horiz-adv-x="542" d="M43 -178q85 50 132.5 153.5t47.5 208.5h166q0 -136 -77 -275t-189 -190z" />
<glyph unicode="-" horiz-adv-x="999" d="M143 483v158h713v-158h-713z" />
<glyph unicode="." horiz-adv-x="542" d="M158 92q0 50 31.5 82.5t82.5 32.5t83 -32.5t32 -82.5t-32 -82.5t-83 -32.5t-82.5 32.5t-31.5 82.5z" />
<glyph unicode="/" horiz-adv-x="950" d="M20 -188l756 1634l150 -72l-756 -1634z" />
<glyph unicode="0" horiz-adv-x="1228" d="M94 631q0 133 35 250t99.5 205.5t164.5 140t223 51.5q129 0 230 -50.5t163 -139.5t94 -204.5t32 -252.5q0 -182 -59.5 -329t-179 -236t-280.5 -89q-130 0 -231 51t-164 141t-95 207t-32 255zM268 631q0 -107 20 -195t61 -156t109 -105.5t158 -37.5q88 0 155.5 37.5 t108 105t61 156t20.5 195.5q0 105 -20.5 192t-61 154t-108 104t-155.5 37q-119 0 -199 -66t-114.5 -172.5t-34.5 -248.5z" />
<glyph unicode="1" horiz-adv-x="841" d="M94 1096l377 161h166v-1257h-174v1085l-313 -131z" />
<glyph unicode="2" horiz-adv-x="1150" d="M86 1018q184 260 473 260q194 0 309 -102.5t115 -276.5q0 -68 -20 -127t-66 -119.5t-94.5 -109t-132.5 -123.5l-295 -266h641v-154h-893v125l399 364q59 55 86.5 80.5t68.5 67.5t59 67.5t38.5 60.5t27.5 67.5t7 68.5q0 103 -70 160t-182 57q-107 0 -189 -43t-169 -153z " />
<glyph unicode="3" horiz-adv-x="1099" d="M74 227l114 95q80 -102 162.5 -143.5t186.5 -41.5q125 0 199.5 56.5t74.5 171.5q0 113 -76.5 172t-216.5 59h-127v133l344 375h-575v153h758v-145l-355 -381q190 -3 305 -103t115 -261q0 -175 -121 -282.5t-319 -107.5q-296 0 -469 250z" />
<glyph unicode="4" d="M104 319v146l635 792h158v-792h186v-146h-186v-319h-162v319h-631zM287 465h452v573z" />
<glyph unicode="5" horiz-adv-x="1130" d="M80 207l113 96q84 -98 166 -132t196 -34q112 0 192 66.5t80 169.5q0 136 -88.5 196t-283.5 60h-271l101 628h628v-153h-499l-52 -330h146q242 0 367.5 -106.5t125.5 -292.5q0 -174 -125 -286t-319 -112q-304 0 -477 230z" />
<glyph unicode="6" horiz-adv-x="1124" d="M94 547q0 214 60.5 377t184.5 258.5t298 95.5q236 0 387 -193l-115 -98q-57 68 -119.5 99.5t-154.5 31.5q-160 0 -255.5 -118t-109.5 -328q138 121 340 121q200 0 314 -110.5t114 -289.5q0 -175 -129.5 -295.5t-328.5 -120.5q-231 0 -358.5 147t-127.5 423zM270 412 q0 -118 82 -196.5t215 -78.5q145 0 223 68t78 188t-69.5 185t-212.5 65q-144 0 -230 -63t-86 -168z" />
<glyph unicode="7" horiz-adv-x="1087" d="M86 1096v161h913v-122l-544 -1135h-183l525 1096h-711z" />
<glyph unicode="8" horiz-adv-x="1189" d="M135 340q0 105 61 185.5t162 125.5q-89 41 -140.5 113.5t-51.5 169.5q0 148 118 246t308 98q201 0 314.5 -95t113.5 -243q0 -94 -51.5 -167t-137.5 -116q104 -43 164 -122.5t60 -188.5q0 -159 -126 -264t-333 -105q-220 0 -340.5 101t-120.5 262zM305 346 q0 -100 75.5 -157.5t215.5 -57.5q139 0 214 57.5t75 157.5q0 103 -76.5 167.5t-214.5 64.5q-137 0 -213 -64.5t-76 -167.5zM330 934q0 -92 69 -148.5t195 -56.5q124 0 193 56.5t69 148.5q0 87 -69 139.5t-195 52.5q-125 0 -193.5 -52.5t-68.5 -139.5z" />
<glyph unicode="9" horiz-adv-x="1124" d="M86 864q0 175 130 294.5t329 119.5q231 0 358 -144t127 -419q0 -231 -56 -393.5t-177 -253.5t-303 -91q-243 0 -394 193l115 98q57 -68 121 -99.5t160 -31.5q171 0 258.5 108t99.5 333q-72 -54 -151 -81.5t-189 -27.5q-200 0 -314 109.5t-114 285.5zM256 864 q0 -117 70 -181.5t213 -64.5q144 0 229.5 63t85.5 165q0 117 -82 194.5t-215 77.5q-145 0 -223 -67t-78 -187z" />
<glyph unicode=":" horiz-adv-x="542" d="M158 92q0 50 31.5 82.5t82.5 32.5t83 -32.5t32 -82.5t-32 -82.5t-83 -32.5t-82.5 32.5t-31.5 82.5zM158 864q0 50 31.5 82.5t82.5 32.5t83 -32.5t32 -82.5t-32 -82t-83 -32t-82.5 32t-31.5 82z" />
<glyph unicode=";" horiz-adv-x="542" d="M43 -178q85 50 132.5 153.5t47.5 208.5h166q0 -136 -77 -275t-189 -190zM178 864q0 50 32 82.5t83 32.5t83 -32.5t32 -82.5t-32 -82t-83 -32t-83 32t-32 82z" />
<glyph unicode="&#x3c;" d="M231 559v139l633 377l86 -139l-530 -307l530 -307l-86 -140z" />
<glyph unicode="=" d="M184 338v168h820v-168h-820zM184 754v168h820v-168h-820z" />
<glyph unicode="&#x3e;" d="M231 322l531 307l-531 307l86 139l633 -377v-139l-633 -377z" />
<glyph unicode="?" horiz-adv-x="991" d="M53 1087q72 101 188.5 156t231.5 55q203 0 319.5 -93.5t116.5 -252.5q0 -56 -17 -105t-52.5 -91t-65 -69t-76.5 -64q-79 -63 -116 -107.5t-37 -97.5v-53h-156v57q0 41 12 78.5t28.5 64.5t48.5 59t56 51.5t66 51.5q133 99 133 219q0 90 -67 143.5t-193 53.5 q-90 0 -173.5 -40t-141.5 -108zM354 92q0 50 32 82.5t83 32.5t83 -32.5t32 -82.5t-32 -82.5t-83 -32.5t-83 32.5t-32 82.5z" />
<glyph unicode="@" horiz-adv-x="1898" d="M123 489q0 157 60.5 303t168.5 258.5t271 180t354 67.5q166 0 303.5 -39.5t229.5 -104.5t155.5 -152.5t92 -181t28.5 -191.5q0 -85 -23.5 -161.5t-63 -133.5t-91.5 -103t-110 -75t-116.5 -44.5t-113.5 -15.5h-51q-18 61 -21 119q-94 -135 -276 -135q-165 0 -267 111.5 t-102 293.5q0 171 111 288.5t270 117.5q160 0 256 -127q3 52 18 108h131v-628q56 13 103.5 40.5t87.5 72t63 114t23 156.5q0 131 -50 231.5t-138 161t-201 91t-248 30.5q-138 0 -253 -39t-193 -103.5t-131.5 -150.5t-78 -178t-24.5 -187q0 -78 15 -151t52 -148.5t94 -137.5 t146.5 -115.5t204.5 -86.5l-72 -137q-288 85 -451 285.5t-163 496.5zM723 492q0 -119 55 -189t160 -70q122 0 185 57t63 181v29q0 124 -60.5 180.5t-179.5 56.5q-101 0 -162 -69.5t-61 -175.5z" />
<glyph unicode="A" horiz-adv-x="1251" d="M10 0l518 1278h199l514 -1278h-184l-144 367h-579l-141 -367h-183zM393 528h461l-231 584z" />
<glyph unicode="B" horiz-adv-x="1169" d="M164 0v1278h461q213 0 327.5 -86t114.5 -248q0 -210 -203 -287q248 -78 248 -313q0 -172 -124 -258t-343 -86h-481zM328 152h301q158 0 238.5 46.5t80.5 151.5q0 215 -319 215h-301v-413zM328 719h280q299 0 299 211q0 106 -75.5 151t-223.5 45h-280v-407z" />
<glyph unicode="C" horiz-adv-x="1251" d="M92 641q0 186 76 334.5t221 235.5t334 87q310 0 457 -227l-115 -94q-123 162 -344 162q-111 0 -200 -41.5t-143.5 -112t-83 -158.5t-28.5 -186q0 -138 53 -251.5t158 -183t244 -69.5q116 0 206.5 46.5t149.5 125.5l113 -94q-73 -118 -192.5 -178t-274.5 -60 q-288 0 -459.5 183t-171.5 481z" />
<glyph unicode="D" horiz-adv-x="1357" d="M164 0v1278h442q207 0 358 -82.5t226.5 -225t75.5 -329.5q0 -139 -47 -257.5t-131.5 -203t-208.5 -132.5t-273 -48h-442zM336 162h270q234 0 360 128.5t126 350.5q0 219 -126 347t-360 128h-270v-954z" />
<glyph unicode="E" horiz-adv-x="1103" d="M164 0v1278h860v-164h-686v-383h610v-164h-610v-403h709v-164h-883z" />
<glyph unicode="F" horiz-adv-x="1095" d="M164 0v1278h874v-164h-700v-391h623v-164h-623v-559h-174z" />
<glyph unicode="G" horiz-adv-x="1411" d="M92 641q0 291 182 474t474 183q327 0 483 -241l-115 -94q-134 176 -373 176q-118 0 -211 -39.5t-150.5 -108t-87.5 -157.5t-30 -193t29 -195t84.5 -160.5t144.5 -110t201 -40.5q78 0 145.5 20t125 61t93.5 112t43 166h-364v157h543v-69q0 -282 -162 -443.5t-422 -161.5 q-198 0 -342 84.5t-217.5 234t-73.5 345.5z" />
<glyph unicode="H" horiz-adv-x="1400" d="M164 0v1278h174v-547h729v547h174v-1278h-174v567h-729v-567h-174z" />
<glyph unicode="I" horiz-adv-x="497" d="M164 0v1278h174v-1278h-174z" />
<glyph unicode="J" horiz-adv-x="1157" d="M37 215l113 94q127 -172 348 -172q87 0 152.5 32.5t105 92.5t59 138t19.5 175v703h174v-698q0 -286 -131 -444.5t-381 -158.5q-311 0 -459 238z" />
<glyph unicode="K" horiz-adv-x="1232" d="M164 0v1278h174v-555q74 -10 180 -10q213 0 320.5 133.5t138.5 431.5h166q-12 -232 -96.5 -399t-233.5 -252l422 -627h-207l-377 567q-75 -10 -141 -10q-90 0 -172 12v-569h-174z" />
<glyph unicode="L" horiz-adv-x="1050" d="M170 399v879h174v-846q0 -139 62.5 -203.5t197.5 -64.5h428v-164h-463q-186 0 -292.5 104.5t-106.5 294.5z" />
<glyph unicode="M" horiz-adv-x="1609" d="M133 0l82 1278h168l422 -795l422 795h168l82 -1278h-172l-64 981l-362 -657h-152l-362 632l-60 -956h-172z" />
<glyph unicode="N" horiz-adv-x="1396" d="M164 0v1278h172l731 -1014v1014h170v-1278h-172l-731 1012v-1012h-170z" />
<glyph unicode="O" horiz-adv-x="1429" d="M92 641q0 181 79.5 331t223 238t322.5 88q141 0 258 -50.5t196 -139t122.5 -208.5t43.5 -259q0 -185 -79 -336.5t-221.5 -239.5t-319.5 -88q-188 0 -331.5 88t-218.5 238t-75 338zM266 641q0 -222 122.5 -363t328.5 -141q203 0 324.5 141t121.5 363q0 143 -54 256 t-156 177.5t-236 64.5q-206 0 -328.5 -139.5t-122.5 -358.5z" />
<glyph unicode="P" horiz-adv-x="1157" d="M164 0v1278h428q229 0 361 -113.5t132 -300.5q0 -189 -138.5 -303.5t-358.5 -114.5q-128 0 -250 25v-471h-174zM338 623q120 -21 242 -21q155 0 243 67.5t88 194.5q0 128 -87 195t-244 67h-242v-503z" />
<glyph unicode="Q" horiz-adv-x="1443" d="M92 641q0 181 79.5 331t223 238t322.5 88q141 0 258 -50.5t196 -139t122.5 -208.5t43.5 -259q0 -254 -145.5 -437t-376.5 -218q19 -100 75.5 -155.5t141.5 -55.5q83 0 141.5 26.5t126.5 92.5l97 -111q-84 -83 -172.5 -123.5t-204.5 -40.5q-151 0 -250 98.5t-121 264.5 q-255 23 -406 206.5t-151 452.5zM266 641q0 -222 122.5 -363t328.5 -141q203 0 324.5 141t121.5 363q0 143 -54 256t-156 177.5t-236 64.5q-206 0 -328.5 -139.5t-122.5 -358.5z" />
<glyph unicode="R" horiz-adv-x="1177" d="M164 0v1278h430q228 0 359.5 -112.5t131.5 -293.5q0 -127 -69.5 -222t-190.5 -142l322 -508h-203l-287 469q-20 -2 -63 -2q-125 0 -260 27v-494h-170zM334 641q121 -23 252 -23q154 0 239.5 65.5t85.5 188.5q0 125 -84.5 189.5t-240.5 64.5h-252v-485z" />
<glyph unicode="S" horiz-adv-x="1165" d="M45 240l107 104q90 -104 201.5 -156.5t258.5 -52.5q157 0 234.5 52.5t77.5 144.5q0 104 -68.5 153.5t-265.5 87.5q-55 11 -91.5 18.5t-83 19.5t-76.5 23.5t-65.5 28.5t-57.5 36t-44.5 44.5t-35 55.5t-20 68t-7.5 83q0 153 134.5 250.5t336.5 97.5q161 0 281 -54.5 t212 -170.5l-112 -94q-91 97 -175 129.5t-206 32.5q-144 0 -222.5 -50t-78.5 -141q0 -24 4.5 -44t11 -36t21.5 -30t27.5 -24t39.5 -20t46 -17t57.5 -16t64.5 -14.5t76 -15.5q90 -18 151.5 -35.5t126.5 -49t103.5 -72t63 -103.5t24.5 -145q0 -160 -132 -255.5t-358 -95.5 q-173 0 -318 67.5t-243 195.5z" />
<glyph unicode="T" horiz-adv-x="1157" d="M35 1114v164h1087v-164h-458v-1114h-175v1114h-454z" />
<glyph unicode="U" horiz-adv-x="1380" d="M150 598v680h174v-680q0 -222 87 -341.5t281 -119.5t279.5 114.5t85.5 346.5v680h174v-680q0 -286 -140 -453.5t-399 -167.5q-274 0 -408 164.5t-134 456.5z" />
<glyph unicode="V" horiz-adv-x="1263" d="M14 1278h195l420 -1102l424 1102h196l-516 -1278h-203z" />
<glyph unicode="W" horiz-adv-x="1792" d="M31 1278h188l289 -1067l287 1055h206l287 -1055l289 1067h184l-372 -1278h-199l-297 1067l-297 -1067h-193z" />
<glyph unicode="X" horiz-adv-x="1265" d="M29 0l495 674l-450 604h211l358 -485l344 485h205l-447 -623l492 -655h-211l-397 532l-393 -532h-207z" />
<glyph unicode="Y" horiz-adv-x="1105" d="M14 1278h193l352 -629l344 629h189l-451 -784v-494h-174v489z" />
<glyph unicode="Z" horiz-adv-x="1142" d="M74 0v143l768 971h-768v164h987v-143l-768 -971h788v-164h-1007z" />
<glyph unicode="[" horiz-adv-x="753" d="M184 -303v1671h549v-156h-375v-1359h375v-156h-549z" />
<glyph unicode="\" horiz-adv-x="950" d="M25 1374l149 72l756 -1634l-150 -72z" />
<glyph unicode="]" horiz-adv-x="753" d="M20 -147h375v1359h-375v156h549v-1671h-549v156z" />
<glyph unicode="^" horiz-adv-x="1228" d="M188 621l332 317q42 39 96 39q60 0 99 -39l323 -317l-104 -107l-320 291l-321 -291z" />
<glyph unicode="_" horiz-adv-x="1024" d="M0 -137h1024v-164h-1024v164z" />
<glyph unicode="`" horiz-adv-x="1024" d="M276 1225l58 131l401 -166l-51 -119z" />
<glyph unicode="a" horiz-adv-x="1062" d="M92 264q0 137 104.5 222t297.5 85q159 0 284 -49v25q0 149 -69.5 216.5t-184.5 67.5q-94 0 -167 -24t-148 -86l-88 104q91 85 187 119.5t229 34.5q173 0 289 -106.5t116 -303.5v-569h-129q-20 63 -27 147q-49 -77 -137 -123.5t-213 -46.5q-161 0 -252.5 79t-91.5 208z M256 268q0 -145 197 -145q148 0 234 73t91 191v12q-123 37 -260 37q-141 0 -201.5 -43t-60.5 -125z" />
<glyph unicode="b" horiz-adv-x="1173" d="M137 0v1319h168v-510q58 80 146.5 125t195.5 45q199 0 322 -141t123 -363q0 -220 -126 -359t-325 -139q-111 0 -200 48.5t-146 134.5q-7 -84 -29 -160h-129zM305 453q0 -154 88 -240t234 -86q136 0 215.5 85.5t79.5 256.5q0 172 -78 266t-211 94q-147 0 -237.5 -85 t-90.5 -238v-53z" />
<glyph unicode="c" horiz-adv-x="974" d="M82 477q0 218 129.5 360t337.5 142q120 0 207.5 -45t152.5 -146l-100 -88q-51 66 -112 97.5t-148 31.5q-136 0 -216.5 -98t-80.5 -254q0 -150 84 -250t219 -100q165 0 266 135l101 -88q-121 -197 -367 -197q-217 0 -345 138.5t-128 361.5z" />
<glyph unicode="d" horiz-adv-x="1175" d="M82 479q0 221 129 360.5t330 139.5q103 0 187.5 -43t141.5 -119v502h168v-1319h-129q-22 68 -26 162q-58 -86 -150.5 -135.5t-204.5 -49.5q-200 0 -323 140t-123 362zM252 485q0 -172 78 -265t211 -93q147 0 238 86t91 240v53q0 154 -86 238.5t-231 84.5q-137 0 -219 -87 t-82 -257z" />
<glyph unicode="e" horiz-adv-x="1071" d="M82 477q0 211 130 356.5t335 145.5q201 0 315.5 -127t114.5 -350v-66h-731q11 -137 95 -223t222 -86q199 0 295 137l105 -88q-125 -199 -400 -199q-224 0 -352.5 138t-128.5 362zM252 575h551q-11 122 -75 189t-181 67q-116 0 -194 -67t-101 -189z" />
<glyph unicode="f" horiz-adv-x="880" d="M51 807v149h197v5q0 192 100 296.5t277 104.5q148 0 256 -105l-74 -108q-82 65 -172 65q-105 0 -162 -66t-57 -177v-15h399v-149h-399v-807h-168v807h-197z" />
<glyph unicode="g" horiz-adv-x="1163" d="M82 -188l86 102q147 -141 354 -141q159 0 248.5 84t89.5 249v84q-60 -79 -146.5 -123t-191.5 -44q-196 0 -317 134t-121 345q0 210 126.5 343.5t324.5 133.5q206 0 327 -164q3 71 25 141h141v-845q0 -216 -135.5 -347t-349.5 -131q-290 0 -461 179zM254 508 q0 -156 76.5 -246t204.5 -90q143 0 234 86.5t91 226.5v33q0 141 -85.5 226t-227.5 85q-132 0 -212.5 -83.5t-80.5 -237.5z" />
<glyph unicode="h" horiz-adv-x="1134" d="M137 0v1319h168v-504q56 77 138.5 120.5t185.5 43.5q183 0 284 -108t101 -324v-547h-168v555q0 135 -61 204.5t-171 69.5q-142 0 -225.5 -88.5t-83.5 -242.5v-498h-168z" />
<glyph unicode="i" horiz-adv-x="442" d="M111 1206q0 48 31.5 80.5t80.5 32.5q47 0 78 -32.5t31 -80.5t-31 -80t-78 -32q-49 0 -80.5 32t-31.5 80zM137 0v956h168v-956h-168z" />
<glyph unicode="j" horiz-adv-x="481" d="M-250 -268l76 110q77 -53 166 -53q87 0 135.5 61.5t48.5 172.5v933h168v-923q0 -184 -90 -287.5t-250 -103.5q-154 0 -254 90zM150 1206q0 48 31.5 80.5t80.5 32.5q47 0 78 -32.5t31 -80.5t-31 -80t-78 -32q-49 0 -80.5 32t-31.5 80z" />
<glyph unicode="k" horiz-adv-x="1046" d="M137 0v1319h166v-729q71 -6 129 -6q88 0 150.5 17t112 58.5t79 114.5t41.5 182h139q-18 -342 -258 -464l328 -492h-207l-280 444q-47 -8 -111 -8q-66 0 -123 8v-444h-166z" />
<glyph unicode="l" horiz-adv-x="442" d="M137 0v1319h168v-1319h-168z" />
<glyph unicode="m" horiz-adv-x="1798" d="M137 0v956h133q24 -73 27 -151q56 82 138.5 128t185.5 46q240 0 327 -199q55 93 148.5 146t210.5 53q180 0 275 -110t95 -328v-541h-168v553q0 134 -55.5 205t-163.5 71q-140 0 -219.5 -88t-79.5 -243v-498h-168v553q0 134 -56.5 205t-164.5 71q-137 0 -217 -88.5 t-80 -242.5v-498h-168z" />
<glyph unicode="n" horiz-adv-x="1134" d="M137 0v956h133q26 -70 29 -151q54 82 139 128t191 46q183 0 284 -108t101 -324v-547h-168v555q0 135 -61 204.5t-171 69.5q-142 0 -225.5 -88.5t-83.5 -242.5v-498h-168z" />
<glyph unicode="o" horiz-adv-x="1138" d="M82 477q0 140 61.5 254t173.5 181t254 67q217 0 351.5 -141t134.5 -361q0 -212 -137.5 -356t-348.5 -144q-219 0 -354 139.5t-135 360.5zM252 477q0 -152 86.5 -251t232.5 -99q143 0 229.5 99.5t86.5 250.5t-86.5 251.5t-229.5 100.5q-146 0 -232.5 -100t-86.5 -252z" />
<glyph unicode="p" horiz-adv-x="1173" d="M137 -336v1292h133q21 -60 29 -155q58 84 148 131t200 47q199 0 322 -141t123 -363q0 -220 -126 -359t-325 -139q-104 0 -190.5 44.5t-145.5 121.5v-479h-168zM305 453q0 -154 88 -240t234 -86q136 0 215.5 85.5t79.5 256.5q0 172 -78 266t-211 94q-147 0 -237.5 -85 t-90.5 -238v-53z" />
<glyph unicode="q" horiz-adv-x="1175" d="M82 479q0 222 128.5 361t330.5 139q105 0 189.5 -43.5t141.5 -120.5q3 71 25 141h141v-1292h-168v481q-60 -78 -148.5 -123t-193.5 -45q-200 0 -323 140t-123 362zM252 485q0 -172 78 -265t211 -93q146 0 237.5 86.5t91.5 239.5v53q0 154 -86 238.5t-231 84.5 q-137 0 -219 -87t-82 -257z" />
<glyph unicode="r" horiz-adv-x="786" d="M137 0v956h133q24 -73 27 -151q56 82 137 128t180 46q83 0 144 -41l-60 -141q-45 22 -102 22q-127 0 -209 -85.5t-82 -244.5v-489h-168z" />
<glyph unicode="s" horiz-adv-x="915" d="M72 137l84 101q108 -111 311 -111t203 135q0 70 -58.5 105.5t-169.5 50.5q-61 8 -105.5 18.5t-90.5 32t-75 51t-47 76.5t-18 109q0 117 101 195.5t266 78.5q118 0 203 -38t155 -116l-92 -100q-60 60 -121.5 82t-152.5 22q-103 0 -149 -36t-46 -93q0 -67 50 -93.5 t176 -45.5q58 -9 102.5 -20.5t92 -33.5t78.5 -51.5t51 -76.5t20 -107q0 -130 -96.5 -212.5t-264.5 -82.5q-263 0 -407 160z" />
<glyph unicode="t" horiz-adv-x="907" d="M47 807v149h197v250h168v-250h407v-149h-407v-410q0 -270 217 -270q95 0 182 66l74 -111q-108 -105 -267 -105q-179 0 -276.5 108t-97.5 325v397h-197z" />
<glyph unicode="u" horiz-adv-x="1130" d="M129 410v546h168v-563q0 -133 59 -200.5t168 -67.5q141 0 222 86.5t81 241.5v503h168v-956h-131q-25 70 -28 150q-56 -81 -139.5 -127t-186.5 -46q-181 0 -281 109t-100 324z" />
<glyph unicode="v" horiz-adv-x="1021" d="M25 956h182l307 -776l301 776h182l-399 -956h-176z" />
<glyph unicode="w" horiz-adv-x="1509" d="M33 956h180l217 -772l232 764h192l231 -764l213 772h181l-299 -956h-189l-237 766l-238 -766h-184z" />
<glyph unicode="x" horiz-adv-x="991" d="M23 0l366 498l-342 458h191l260 -358l256 358h184l-342 -458l371 -498h-193l-285 391l-280 -391h-186z" />
<glyph unicode="y" horiz-adv-x="1009" d="M16 956h191l325 -729l271 729h182l-401 -1019q-116 -297 -330 -297q-72 0 -123 20.5t-96 63.5l71 108q67 -53 136 -53q68 0 107 49t91 176l15 35z" />
<glyph unicode="z" horiz-adv-x="931" d="M68 0v127l573 680h-559v149h772v-127l-580 -679h605v-150h-811z" />
<glyph unicode="{" horiz-adv-x="720" d="M119 475v115q79 15 113 43.5t34 81.5v282q0 189 109 291.5t287 102.5l28 -131q-121 -2 -188.5 -65.5t-67.5 -190.5v-279q0 -132 -108 -193q108 -61 108 -192v-279q0 -127 67.5 -190.5t188.5 -65.5l-28 -131q-178 0 -287 102.5t-109 291.5v282q0 53 -34 81.5t-113 43.5z " />
<glyph unicode="|" horiz-adv-x="550" d="M188 -209v1604h174v-1604h-174z" />
<glyph unicode="}" horiz-adv-x="731" d="M31 -195q121 2 188.5 65.5t67.5 190.5v279q0 131 108 192q-108 61 -108 193v279q0 127 -67.5 190.5t-188.5 65.5l28 131q178 0 287 -102.5t109 -291.5v-282q0 -53 34 -81.5t113 -43.5v-115q-79 -15 -113 -43.5t-34 -81.5v-282q0 -189 -109 -291.5t-287 -102.5z" />
<glyph unicode="~" d="M121 604q117 176 301 176q91 0 199 -69q88 -58 149 -58t104.5 25.5t86.5 81.5l106 -88q-123 -185 -295 -185q-41 0 -81 12t-65 25.5t-61 36.5q-80 53 -141 53t-104.5 -25t-86.5 -81z" />
<glyph unicode="&#xa1;" horiz-adv-x="557" d="M164 864q0 50 32 82.5t83 32.5t82.5 -32.5t31.5 -82.5t-31.5 -82t-82.5 -32t-83 32t-32 82zM184 -322l15 914h159l15 -914h-189z" />
<glyph unicode="&#xa2;" d="M184 637q0 171 100.5 296t268.5 157v188h174v-184q185 -25 289 -187l-105 -94q-51 66 -111.5 96.5t-148.5 30.5q-136 0 -214.5 -84t-78.5 -219q0 -129 82.5 -215t216.5 -86q167 0 267 133l104 -92q-105 -170 -301 -195v-182h-174v186q-171 30 -270 153t-99 298z" />
<glyph unicode="&#xa3;" d="M51 530v154h152v78q0 108 31 201t90.5 163.5t154 111t213.5 40.5q265 0 398 -231l-119 -91q-55 85 -120 123.5t-151 38.5q-164 0 -236.5 -91t-72.5 -263v-80h426v-154h-426v-376h688v-154h-876v530h-152z" />
<glyph unicode="&#xa4;" d="M82 233l166 164q-70 103 -70 230q0 129 72 235l-166 166l111 111l167 -168q103 67 230 67q129 0 233 -69l170 170l111 -111l-170 -170q70 -103 70 -231q0 -125 -66 -226l168 -168l-111 -110l-168 166q-104 -74 -237 -74q-127 0 -236 72l-163 -164zM334 627 q0 -117 72 -192t184 -75q114 0 187 75t73 192q0 118 -73 192t-187 74q-113 0 -184.5 -74t-71.5 -192z" />
<glyph unicode="&#xa5;" d="M72 1257h186l342 -598l334 598h182l-356 -604h223v-147h-301v-144h301v-147h-301v-215h-174v215h-295v147h295v144h-295v147h215z" />
<glyph unicode="&#xa6;" horiz-adv-x="550" d="M188 -209v582h174v-582h-174zM188 813v582h174v-582h-174z" />
<glyph unicode="&#xa7;" horiz-adv-x="1132" d="M113 532q0 121 98 230q-57 69 -57 188q0 142 114 245t293 103q145 0 251 -53t192 -160l-113 -94q-84 89 -155.5 119.5t-174.5 30.5q-119 0 -180.5 -58.5t-61.5 -132.5q0 -23 4 -42t15.5 -35t21.5 -27.5t32.5 -23t37 -18t46.5 -16t49.5 -14t56.5 -14.5q81 -20 142.5 -41 t121.5 -53.5t98.5 -71.5t62 -94.5t23.5 -122.5q0 -123 -98 -232q61 -74 61 -194q0 -142 -117 -245t-307 -103q-145 0 -253.5 54.5t-194.5 162.5l112 94q85 -89 159.5 -121.5t176.5 -32.5q129 0 191.5 58t62.5 133q0 38 -14.5 67t-34.5 47.5t-61.5 35.5t-73 26.5t-92.5 24.5 q-79 20 -139.5 41t-118 53t-94.5 71t-59.5 93.5t-22.5 121.5zM276 553q0 -34 6.5 -61t17.5 -47.5t32.5 -38t42.5 -29.5t57 -24.5t68 -21t82 -20.5q151 -36 235 -78q49 46 49 123q0 102 -59.5 149t-220.5 85q-194 47 -267 84q-43 -46 -43 -121z" />
<glyph unicode="&#xa8;" horiz-adv-x="1024" d="M215 1206q0 48 32 80.5t81 32.5q47 0 77.5 -32.5t30.5 -80.5t-30.5 -80t-77.5 -32q-49 0 -81 32t-32 80zM588 1206q0 48 31.5 80.5t80.5 32.5q47 0 78 -32.5t31 -80.5t-31 -80t-78 -32q-49 0 -80.5 32t-31.5 80z" />
<glyph unicode="&#xa9;" horiz-adv-x="1482" d="M82 641q0 184 86.5 334.5t237.5 236.5t335 86q190 0 341 -84t235 -234t84 -339q0 -186 -86 -338t-237.5 -239t-336.5 -87q-190 0 -340.5 85t-234.5 236.5t-84 342.5zM221 641q0 -231 146.5 -380.5t373.5 -149.5q146 0 265.5 69.5t187.5 191t68 269.5q0 228 -147 376 t-374 148q-145 0 -264.5 -69t-187.5 -189.5t-68 -265.5zM412 639q0 146 99 246t251 100q90 0 158.5 -38.5t107.5 -108.5l-104 -76q-62 84 -160 84q-90 0 -140.5 -55.5t-50.5 -149.5q0 -92 49.5 -148.5t135.5 -56.5q104 0 172 84l100 -76q-39 -71 -109.5 -110t-164.5 -39 q-162 0 -253 92.5t-91 251.5z" />
<glyph unicode="&#xaa;" horiz-adv-x="831" d="M76 782q0 96 75.5 159t219.5 63q114 0 207 -35v12q0 190 -181 190q-66 0 -118 -16t-107 -59l-74 92q69 60 143 85t173 25q137 0 224 -78.5t87 -230.5v-399h-117q-17 55 -20 106q-83 -123 -256 -123q-122 0 -189 59t-67 150zM221 788q0 -94 133 -94q103 0 163.5 54 t60.5 120v2q-100 27 -183 27q-174 0 -174 -109z" />
<glyph unicode="&#xab;" horiz-adv-x="989" d="M106 481l252 359h174l-251 -359l251 -358h-174zM477 481l252 359h174l-252 -359l252 -358h-174z" />
<glyph unicode="&#xac;" d="M168 725v162h819v-522h-158v360h-661z" />
<glyph unicode="&#xad;" horiz-adv-x="999" d="M143 483v158h713v-158h-713z" />
<glyph unicode="&#xae;" horiz-adv-x="1114" d="M92 895q0 198 133.5 331.5t331.5 133.5q203 0 334 -131t131 -334q0 -198 -133.5 -332.5t-331.5 -134.5q-202 0 -333.5 132t-131.5 335zM203 895q0 -156 100 -257t254 -101q152 0 253 102t101 256q0 155 -99.5 255.5t-254.5 100.5q-151 0 -252.5 -102.5t-101.5 -253.5z M387 676v450h176q91 0 141 -40t50 -115q0 -86 -80 -127l121 -168h-131l-101 143q-10 -2 -31 -2h-36v-141h-109zM496 920h61q86 0 86 51q0 29 -20 41t-66 12h-61v-104z" />
<glyph unicode="&#xb0;" horiz-adv-x="677" d="M61 1059q0 119 82.5 198.5t194.5 79.5q115 0 196.5 -79.5t81.5 -198.5q0 -120 -81.5 -199.5t-196.5 -79.5q-112 0 -194.5 80t-82.5 199zM195 1059q0 -65 42 -105.5t101 -40.5q61 0 102 40t41 106t-40.5 105.5t-102.5 39.5q-59 0 -101 -40t-42 -105z" />
<glyph unicode="&#xb1;" d="M164 610v162h352v322h158v-322h350v-162h-350v-319h-158v319h-352zM184 0v170h820v-170h-820z" />
<glyph unicode="&#xb2;" horiz-adv-x="700" d="M51 1116q112 152 299 152q116 0 189 -53.5t73 -153.5q0 -67 -43.5 -117.5t-140.5 -118.5l-145 -102h346v-119h-553v98l227 168q93 68 130.5 106.5t37.5 80.5q0 40 -36 64t-93 24q-59 0 -104.5 -19.5t-94.5 -74.5z" />
<glyph unicode="&#xb3;" horiz-adv-x="684" d="M51 733l92 66q81 -86 203 -86q63 0 102 22.5t39 63.5q0 43 -38 66.5t-109 23.5h-96v94l186 158h-330v116h484v-100l-193 -168q106 -8 169 -59.5t63 -134.5q0 -91 -75 -147t-198 -56q-196 0 -299 141z" />
<glyph unicode="&#xb4;" horiz-adv-x="1024" d="M276 1190l402 166l57 -131l-407 -154z" />
<glyph unicode="&#xb5;" horiz-adv-x="1167" d="M152 -397v1353h167v-563q0 -133 59.5 -202.5t168.5 -69.5q140 0 221.5 88t81.5 244v503h168v-956h-131q-26 73 -29 150q-54 -81 -133 -127t-174 -46q-136 0 -232 107v-481h-167z" />
<glyph unicode="&#xb6;" horiz-adv-x="1134" d="M92 899q0 161 105 270t274 109h164v-1284q0 -101 -45.5 -209t-134.5 -166l-107 94q62 50 92.5 128t30.5 163v518q-168 0 -273.5 108.5t-105.5 268.5zM782 0v1278h164v-1278h-164z" />
<glyph unicode="&#xb7;" horiz-adv-x="542" d="M158 641q0 50 31.5 82.5t82.5 32.5t83 -32.5t32 -82.5t-32 -82.5t-83 -32.5t-82.5 32.5t-31.5 82.5z" />
<glyph unicode="&#xb8;" horiz-adv-x="1024" d="M295 -244l72 94q60 -49 120 -49q41 0 67 22.5t26 63.5q0 82 -82 97l73 73q67 -28 112.5 -79.5t45.5 -120.5q0 -80 -62.5 -132.5t-164.5 -52.5q-60 0 -115.5 23t-91.5 61z" />
<glyph unicode="&#xb9;" horiz-adv-x="514" d="M51 1161l236 96h133v-653h-141v520l-181 -67z" />
<glyph unicode="&#xba;" horiz-adv-x="888" d="M76 936q0 153 103.5 257.5t266.5 104.5q165 0 266 -102t101 -260q0 -152 -103.5 -257.5t-263.5 -105.5q-167 0 -268.5 102t-101.5 261zM231 936q0 -98 57 -163.5t156 -65.5t156 65.5t57 163.5t-56.5 163.5t-154.5 65.5q-101 0 -158 -65.5t-57 -163.5z" />
<glyph unicode="&#xbb;" horiz-adv-x="989" d="M86 123l252 358l-252 359h174l252 -359l-252 -358h-174zM457 123l252 358l-252 359h174l252 -359l-252 -358h-174z" />
<glyph unicode="&#xbc;" horiz-adv-x="2187" d="M51 1161l236 96h133v-653h-141v520l-181 -67zM588 0l942 1257h180l-942 -1257h-180zM1341 147v113l375 393h127v-397h103v-109h-103v-147h-129v147h-373zM1481 256h235v248z" />
<glyph unicode="&#xbd;" horiz-adv-x="1587" d="M51 1161l236 96h133v-653h-141v520l-181 -67zM133 0l942 1257h180l-942 -1257h-180zM938 512q112 152 299 152q116 0 189 -53.5t73 -153.5q0 -67 -43.5 -117.5t-140.5 -118.5l-146 -102h347v-119h-553v98l227 168q93 68 130.5 106.5t37.5 80.5q0 40 -36 64t-93 24 q-59 0 -104 -20t-95 -75z" />
<glyph unicode="&#xbe;" horiz-adv-x="2189" d="M51 733l92 66q81 -86 203 -86q63 0 102 22.5t39 63.5q0 43 -38 66.5t-109 23.5h-96v94l186 158h-330v116h484v-100l-193 -168q106 -8 169 -59.5t63 -134.5q0 -91 -75 -147t-198 -56q-196 0 -299 141zM590 0l942 1257h180l-942 -1257h-180zM1343 147v113l375 393h127v-397 h103v-109h-103v-147h-129v147h-373zM1483 256h235v248z" />
<glyph unicode="&#xbf;" horiz-adv-x="991" d="M102 4q0 56 17.5 105.5t52.5 91.5t64.5 69t76.5 64q80 63 117 107.5t37 97.5v53h156v-57q0 -51 -15.5 -93.5t-49.5 -81.5t-63.5 -65t-82.5 -66q-133 -99 -133 -219q0 -90 67 -143t193 -53q90 0 173.5 39.5t141.5 107.5l104 -92q-72 -101 -188 -156t-231 -55 q-203 0 -320 93.5t-117 252.5zM428 864q0 50 32 82.5t83 32.5t82.5 -32.5t31.5 -82.5t-31.5 -82t-82.5 -32t-83 32t-32 82z" />
<glyph unicode="&#xc0;" horiz-adv-x="1251" d="M10 0l518 1278h199l514 -1278h-184l-144 367h-579l-141 -367h-183zM336 1597l76 132l397 -226l-68 -117zM393 528h461l-231 584z" />
<glyph unicode="&#xc1;" horiz-adv-x="1251" d="M10 0l518 1278h199l514 -1278h-184l-144 367h-579l-141 -367h-183zM393 528h461l-231 584zM444 1503l398 226l76 -132l-406 -211z" />
<glyph unicode="&#xc2;" horiz-adv-x="1251" d="M10 0l518 1278h199l514 -1278h-184l-144 367h-579l-141 -367h-183zM313 1458l242 205q39 31 74 31q34 0 73 -31l236 -205l-82 -92l-229 182l-232 -182zM393 528h461l-231 584z" />
<glyph unicode="&#xc3;" horiz-adv-x="1251" d="M10 0l518 1278h199l514 -1278h-184l-144 367h-579l-141 -367h-183zM270 1485q89 133 222 133q67 0 147 -51q64 -41 113 -41q46 0 78 17t65 56l84 -75q-89 -133 -221 -133q-70 0 -154 53q-63 39 -106 39q-46 0 -78.5 -17.5t-65.5 -56.5zM393 528h461l-231 584z" />
<glyph unicode="&#xc4;" horiz-adv-x="1251" d="M10 0l518 1278h199l514 -1278h-184l-144 367h-579l-141 -367h-183zM332 1534q0 48 31.5 80.5t80.5 32.5q47 0 78 -32.5t31 -80.5t-31 -80.5t-78 -32.5q-49 0 -80.5 32.5t-31.5 80.5zM393 528h461l-231 584zM700 1534q0 48 32 80.5t81 32.5q47 0 78 -32.5t31 -80.5 t-31 -80.5t-78 -32.5q-49 0 -81 32.5t-32 80.5z" />
<glyph unicode="&#xc7;" horiz-adv-x="1251" d="M92 641q0 186 76 334.5t221 235.5t334 87q310 0 457 -227l-115 -94q-123 162 -344 162q-111 0 -200 -41.5t-143.5 -112t-83 -158.5t-28.5 -186q0 -138 53 -251.5t158 -183t244 -69.5q116 0 206.5 46.5t149.5 125.5l113 -94q-126 -203 -379 -231q51 -61 51 -134 q0 -84 -64.5 -139t-170.5 -55q-63 0 -120 24t-95 64l73 98q62 -51 127 -51q43 0 69 23.5t26 66.5q0 88 -84 103q-246 32 -388.5 209t-142.5 448z" />
<glyph unicode="&#xc8;" horiz-adv-x="1103" d="M164 0v1278h860v-164h-686v-383h610v-164h-610v-403h709v-164h-883zM311 1597l76 132l397 -226l-67 -117z" />
<glyph unicode="&#xc9;" horiz-adv-x="1103" d="M164 0v1278h860v-164h-686v-383h610v-164h-610v-403h709v-164h-883zM420 1503l397 226l76 -132l-406 -211z" />
<glyph unicode="&#xca;" horiz-adv-x="1103" d="M164 0v1278h860v-164h-686v-383h610v-164h-610v-403h709v-164h-883zM289 1458l241 205q39 31 74 31t74 -31l235 -205l-82 -92l-229 182l-231 -182z" />
<glyph unicode="&#xcb;" horiz-adv-x="1103" d="M164 0v1278h860v-164h-686v-383h610v-164h-610v-403h709v-164h-883zM307 1534q0 48 32 80.5t81 32.5q47 0 77.5 -32.5t30.5 -80.5t-30.5 -80.5t-77.5 -32.5q-49 0 -81 32.5t-32 80.5zM676 1534q0 48 31.5 80.5t80.5 32.5q47 0 78 -32.5t31 -80.5t-31 -80.5t-78 -32.5 q-49 0 -80.5 32.5t-31.5 80.5z" />
<glyph unicode="&#xcc;" horiz-adv-x="497" d="M-39 1597l76 132l397 -226l-67 -117zM164 0v1278h174v-1278h-174z" />
<glyph unicode="&#xcd;" horiz-adv-x="497" d="M70 1503l397 226l76 -132l-406 -211zM164 0v1278h174v-1278h-174z" />
<glyph unicode="&#xce;" horiz-adv-x="497" d="M-61 1458l241 205q39 31 74 31t74 -31l235 -205l-82 -92l-229 182l-232 -182zM164 0v1278h174v-1278h-174z" />
<glyph unicode="&#xcf;" horiz-adv-x="497" d="M-43 1534q0 48 32 80.5t81 32.5q47 0 77.5 -32.5t30.5 -80.5t-30.5 -80.5t-77.5 -32.5q-49 0 -81 32.5t-32 80.5zM164 0v1278h174v-1278h-174zM326 1534q0 48 31.5 80.5t80.5 32.5q47 0 78 -32.5t31 -80.5t-31 -80.5t-78 -32.5q-49 0 -80.5 32.5t-31.5 80.5z" />
<glyph unicode="&#xd1;" horiz-adv-x="1396" d="M164 0v1278h172l731 -1014v1014h170v-1278h-172l-731 1012v-1012h-170zM344 1485q89 133 221 133q68 0 148 -51q64 -41 112 -41q46 0 78.5 17t65.5 56l84 -75q-89 -133 -222 -133q-69 0 -153 53q-63 39 -107 39q-46 0 -78 -17t-65 -57z" />
<glyph unicode="&#xd2;" horiz-adv-x="1429" d="M92 641q0 181 79.5 331t223 238t322.5 88q141 0 258 -50.5t196 -139t122.5 -208.5t43.5 -259q0 -185 -79 -336.5t-221.5 -239.5t-319.5 -88q-188 0 -331.5 88t-218.5 238t-75 338zM266 641q0 -222 122.5 -363t328.5 -141q203 0 324.5 141t121.5 363q0 143 -54 256 t-156 177.5t-236 64.5q-206 0 -328.5 -139.5t-122.5 -358.5zM426 1597l76 132l397 -226l-68 -117z" />
<glyph unicode="&#xd3;" horiz-adv-x="1429" d="M92 641q0 181 79.5 331t223 238t322.5 88q141 0 258 -50.5t196 -139t122.5 -208.5t43.5 -259q0 -185 -79 -336.5t-221.5 -239.5t-319.5 -88q-188 0 -331.5 88t-218.5 238t-75 338zM266 641q0 -222 122.5 -363t328.5 -141q203 0 324.5 141t121.5 363q0 143 -54 256 t-156 177.5t-236 64.5q-206 0 -328.5 -139.5t-122.5 -358.5zM535 1503l397 226l76 -132l-406 -211z" />
<glyph unicode="&#xd4;" horiz-adv-x="1429" d="M92 641q0 181 79.5 331t223 238t322.5 88q141 0 258 -50.5t196 -139t122.5 -208.5t43.5 -259q0 -185 -79 -336.5t-221.5 -239.5t-319.5 -88q-188 0 -331.5 88t-218.5 238t-75 338zM266 641q0 -222 122.5 -363t328.5 -141q203 0 324.5 141t121.5 363q0 143 -54 256 t-156 177.5t-236 64.5q-206 0 -328.5 -139.5t-122.5 -358.5zM403 1458l242 205q39 31 74 31t74 -31l235 -205l-82 -92l-229 182l-232 -182z" />
<glyph unicode="&#xd5;" horiz-adv-x="1429" d="M92 641q0 181 79.5 331t223 238t322.5 88q141 0 258 -50.5t196 -139t122.5 -208.5t43.5 -259q0 -185 -79 -336.5t-221.5 -239.5t-319.5 -88q-188 0 -331.5 88t-218.5 238t-75 338zM266 641q0 -222 122.5 -363t328.5 -141q203 0 324.5 141t121.5 363q0 143 -54 256 t-156 177.5t-236 64.5q-206 0 -328.5 -139.5t-122.5 -358.5zM360 1485q89 133 222 133q67 0 147 -51q64 -41 113 -41q46 0 78 17t65 56l84 -75q-89 -133 -221 -133q-70 0 -154 53q-63 39 -106 39q-46 0 -78.5 -17.5t-65.5 -56.5z" />
<glyph unicode="&#xd6;" horiz-adv-x="1429" d="M92 641q0 181 79.5 331t223 238t322.5 88q141 0 258 -50.5t196 -139t122.5 -208.5t43.5 -259q0 -185 -79 -336.5t-221.5 -239.5t-319.5 -88q-188 0 -331.5 88t-218.5 238t-75 338zM266 641q0 -222 122.5 -363t328.5 -141q203 0 324.5 141t121.5 363q0 143 -54 256 t-156 177.5t-236 64.5q-206 0 -328.5 -139.5t-122.5 -358.5zM422 1534q0 48 32 80.5t81 32.5q47 0 77.5 -32.5t30.5 -80.5t-30.5 -80.5t-77.5 -32.5q-49 0 -81 32.5t-32 80.5zM791 1534q0 48 31.5 80.5t80.5 32.5q47 0 78 -32.5t31 -80.5t-31 -80.5t-78 -32.5 q-49 0 -80.5 32.5t-31.5 80.5z" />
<glyph unicode="&#xd7;" d="M201 367l264 264l-264 262l108 111l264 -265l265 265l108 -111l-262 -262l262 -264l-108 -111l-265 264l-264 -264z" />
<glyph unicode="&#xd9;" horiz-adv-x="1380" d="M150 598v680h174v-680q0 -222 87 -341.5t281 -119.5t279.5 114.5t85.5 346.5v680h174v-680q0 -286 -140 -453.5t-399 -167.5q-274 0 -408 164.5t-134 456.5zM399 1597l76 132l397 -226l-67 -117z" />
<glyph unicode="&#xda;" horiz-adv-x="1380" d="M150 598v680h174v-680q0 -222 87 -341.5t281 -119.5t279.5 114.5t85.5 346.5v680h174v-680q0 -286 -140 -453.5t-399 -167.5q-274 0 -408 164.5t-134 456.5zM508 1503l397 226l76 -132l-406 -211z" />
<glyph unicode="&#xdb;" horiz-adv-x="1380" d="M150 598v680h174v-680q0 -222 87 -341.5t281 -119.5t279.5 114.5t85.5 346.5v680h174v-680q0 -286 -140 -453.5t-399 -167.5q-274 0 -408 164.5t-134 456.5zM377 1458l241 205q39 31 74 31t74 -31l235 -205l-81 -92l-230 182l-231 -182z" />
<glyph unicode="&#xdc;" horiz-adv-x="1380" d="M150 598v680h174v-680q0 -222 87 -341.5t281 -119.5t279.5 114.5t85.5 346.5v680h174v-680q0 -286 -140 -453.5t-399 -167.5q-274 0 -408 164.5t-134 456.5zM395 1534q0 48 32 80.5t81 32.5q47 0 77.5 -32.5t30.5 -80.5t-30.5 -80.5t-77.5 -32.5q-49 0 -81 32.5t-32 80.5 zM764 1534q0 48 32 80.5t81 32.5q47 0 77.5 -32.5t30.5 -80.5t-30.5 -80.5t-77.5 -32.5q-49 0 -81 32.5t-32 80.5z" />
<glyph unicode="&#xdf;" horiz-adv-x="1185" d="M137 -2v960q0 142 60.5 244.5t159 151.5t221.5 49q102 0 183.5 -29t132 -78.5t77 -113t26.5 -135.5q0 -112 -52 -193t-138 -123q143 -28 225 -128t82 -249q0 -160 -109 -268.5t-290 -108.5q-102 0 -178 32t-142 100l101 102q100 -84 213 -84q105 0 170 62t65 169 q0 133 -90 202t-252 69h-125v145h96q117 0 187.5 75t70.5 181q0 103 -65 163t-182 60q-122 0 -200.5 -76t-78.5 -208v-971h-168z" />
<glyph unicode="&#xe0;" horiz-adv-x="1062" d="M92 264q0 137 104.5 222t297.5 85q159 0 284 -49v25q0 149 -69.5 216.5t-184.5 67.5q-94 0 -167 -24t-148 -86l-88 104q91 85 187 119.5t229 34.5q173 0 289 -106.5t116 -303.5v-569h-129q-20 63 -27 147q-49 -77 -137 -123.5t-213 -46.5q-161 0 -252.5 79t-91.5 208z M250 1225l57 131l402 -166l-52 -119zM256 268q0 -145 197 -145q148 0 234 73t91 191v12q-123 37 -260 37q-141 0 -201.5 -43t-60.5 -125z" />
<glyph unicode="&#xe1;" horiz-adv-x="1062" d="M92 264q0 137 104.5 222t297.5 85q159 0 284 -49v25q0 149 -69.5 216.5t-184.5 67.5q-94 0 -167 -24t-148 -86l-88 104q91 85 187 119.5t229 34.5q173 0 289 -106.5t116 -303.5v-569h-129q-20 63 -27 147q-49 -77 -137 -123.5t-213 -46.5q-161 0 -252.5 79t-91.5 208z M256 268q0 -145 197 -145q148 0 234 73t91 191v12q-123 37 -260 37q-141 0 -201.5 -43t-60.5 -125zM330 1190l401 166l57 -131l-407 -154z" />
<glyph unicode="&#xe2;" horiz-adv-x="1062" d="M92 264q0 137 104.5 222t297.5 85q159 0 284 -49v25q0 149 -69.5 216.5t-184.5 67.5q-94 0 -167 -24t-148 -86l-88 104q91 85 187 119.5t229 34.5q173 0 289 -106.5t116 -303.5v-569h-129q-20 63 -27 147q-49 -77 -137 -123.5t-213 -46.5q-161 0 -252.5 79t-91.5 208z M225 1163l230 156q3 2 11 7t11.5 7t10.5 5.5t12 5t12 3t14 1.5t14 -1.5t12 -2.5t13 -5.5t10.5 -5.5t11.5 -7t11 -7l223 -156l-71 -94l-226 137l-227 -137zM256 268q0 -145 197 -145q148 0 234 73t91 191v12q-123 37 -260 37q-141 0 -201.5 -43t-60.5 -125z" />
<glyph unicode="&#xe3;" horiz-adv-x="1062" d="M92 264q0 137 104.5 222t297.5 85q159 0 284 -49v25q0 149 -69.5 216.5t-184.5 67.5q-94 0 -167 -24t-148 -86l-88 104q91 85 187 119.5t229 34.5q173 0 289 -106.5t116 -303.5v-569h-129q-20 63 -27 147q-49 -77 -137 -123.5t-213 -46.5q-161 0 -252.5 79t-91.5 208z M168 1174q89 133 221 133q73 0 148 -52q61 -41 112 -41q46 0 78.5 17.5t65.5 56.5l84 -76q-89 -133 -222 -133q-67 0 -151 51q-66 41 -109 41q-46 0 -78 -17t-65 -56zM256 268q0 -145 197 -145q148 0 234 73t91 191v12q-123 37 -260 37q-141 0 -201.5 -43t-60.5 -125z" />
<glyph unicode="&#xe4;" horiz-adv-x="1062" d="M92 264q0 137 104.5 222t297.5 85q159 0 284 -49v25q0 149 -69.5 216.5t-184.5 67.5q-94 0 -167 -24t-148 -86l-88 104q91 85 187 119.5t229 34.5q173 0 289 -106.5t116 -303.5v-569h-129q-20 63 -27 147q-49 -77 -137 -123.5t-213 -46.5q-161 0 -252.5 79t-91.5 208z M227 1206q0 48 32 80.5t81 32.5q47 0 78 -32.5t31 -80.5t-31 -80t-78 -32q-49 0 -81 32t-32 80zM256 268q0 -145 197 -145q148 0 234 73t91 191v12q-123 37 -260 37q-141 0 -201.5 -43t-60.5 -125zM600 1206q0 48 32 80.5t81 32.5q47 0 77.5 -32.5t30.5 -80.5t-30.5 -80 t-77.5 -32q-49 0 -81 32t-32 80z" />
<glyph unicode="&#xe7;" horiz-adv-x="974" d="M82 477q0 218 129.5 360t337.5 142q120 0 207.5 -45t152.5 -146l-100 -88q-51 66 -112 97.5t-148 31.5q-136 0 -216.5 -98t-80.5 -254q0 -150 84 -250t219 -100q165 0 266 135l101 -88q-91 -150 -260 -186q55 -58 55 -131q0 -80 -63 -132.5t-165 -52.5q-60 0 -115 23 t-91 61l71 94q60 -49 121 -49q41 0 66.5 22.5t25.5 63.5q0 75 -65 93q-195 19 -307.5 154t-112.5 343z" />
<glyph unicode="&#xe8;" horiz-adv-x="1071" d="M82 477q0 211 130 356.5t335 145.5q201 0 315.5 -127t114.5 -350v-66h-731q11 -137 95 -223t222 -86q199 0 295 137l105 -88q-125 -199 -400 -199q-224 0 -352.5 138t-128.5 362zM252 575h551q-11 122 -75 189t-181 67q-116 0 -194 -67t-101 -189zM262 1225l57 131 l402 -166l-51 -119z" />
<glyph unicode="&#xe9;" horiz-adv-x="1071" d="M82 477q0 211 130 356.5t335 145.5q201 0 315.5 -127t114.5 -350v-66h-731q11 -137 95 -223t222 -86q199 0 295 137l105 -88q-125 -199 -400 -199q-224 0 -352.5 138t-128.5 362zM252 575h551q-11 122 -75 189t-181 67q-116 0 -194 -67t-101 -189zM342 1190l401 166 l58 -131l-408 -154z" />
<glyph unicode="&#xea;" horiz-adv-x="1071" d="M82 477q0 211 130 356.5t335 145.5q201 0 315.5 -127t114.5 -350v-66h-731q11 -137 95 -223t222 -86q199 0 295 137l105 -88q-125 -199 -400 -199q-224 0 -352.5 138t-128.5 362zM238 1163l229 156q2 1 11 7t11.5 7t10.5 5.5t13 5.5t12 2.5t14 1.5q8 0 15.5 -1t16 -5.5 t12 -6t15 -8.5t12.5 -8l224 -156l-72 -94l-225 137l-228 -137zM252 575h551q-11 122 -75 189t-181 67q-116 0 -194 -67t-101 -189z" />
<glyph unicode="&#xeb;" horiz-adv-x="1071" d="M82 477q0 211 130 356.5t335 145.5q201 0 315.5 -127t114.5 -350v-66h-731q11 -137 95 -223t222 -86q199 0 295 137l105 -88q-125 -199 -400 -199q-224 0 -352.5 138t-128.5 362zM240 1206q0 48 31.5 80.5t80.5 32.5q47 0 78 -32.5t31 -80.5t-31 -80t-78 -32 q-49 0 -80.5 32t-31.5 80zM252 575h551q-11 122 -75 189t-181 67q-116 0 -194 -67t-101 -189zM612 1206q0 48 32 80.5t81 32.5q47 0 78 -32.5t31 -80.5t-31 -80t-78 -32q-49 0 -81 32t-32 80z" />
<glyph unicode="&#xec;" horiz-adv-x="442" d="M-53 1225l57 131l402 -166l-52 -119zM137 0v956h168v-956h-168z" />
<glyph unicode="&#xed;" horiz-adv-x="442" d="M27 1190l401 166l57 -131l-407 -154zM137 0v956h168v-956h-168z" />
<glyph unicode="&#xee;" horiz-adv-x="442" d="M-78 1163l230 156q3 2 11 7t11.5 7t10.5 5.5t12 5t12 3t14 1.5t14 -1.5t12 -2.5t13 -5.5t10.5 -5.5t11.5 -7t11 -7l223 -156l-72 -94l-225 137l-227 -137zM137 0v956h168v-956h-168z" />
<glyph unicode="&#xef;" horiz-adv-x="442" d="M-76 1206q0 48 32 80.5t81 32.5q47 0 77.5 -32.5t30.5 -80.5t-30.5 -80t-77.5 -32q-49 0 -81 32t-32 80zM137 0v956h168v-956h-168zM297 1206q0 48 32 80.5t81 32.5q47 0 77.5 -32.5t30.5 -80.5t-30.5 -80t-77.5 -32q-49 0 -81 32t-32 80z" />
<glyph unicode="&#xf1;" horiz-adv-x="1134" d="M137 0v956h133q26 -70 29 -151q54 82 139 128t191 46q183 0 284 -108t101 -324v-547h-168v555q0 135 -61 204.5t-171 69.5q-142 0 -225.5 -88.5t-83.5 -242.5v-498h-168zM260 1174q89 133 221 133q73 0 148 -52q61 -41 112 -41q46 0 78.5 17.5t65.5 56.5l84 -76 q-89 -133 -221 -133q-68 0 -152 51q-66 41 -109 41q-46 0 -78 -17t-65 -56z" />
<glyph unicode="&#xf2;" horiz-adv-x="1138" d="M82 477q0 140 61.5 254t173.5 181t254 67q217 0 351.5 -141t134.5 -361q0 -212 -137.5 -356t-348.5 -144q-219 0 -354 139.5t-135 360.5zM252 477q0 -152 86.5 -251t232.5 -99q143 0 229.5 99.5t86.5 250.5t-86.5 251.5t-229.5 100.5q-146 0 -232.5 -100t-86.5 -252z M297 1225l57 131l402 -166l-51 -119z" />
<glyph unicode="&#xf3;" horiz-adv-x="1138" d="M82 477q0 140 61.5 254t173.5 181t254 67q217 0 351.5 -141t134.5 -361q0 -212 -137.5 -356t-348.5 -144q-219 0 -354 139.5t-135 360.5zM252 477q0 -152 86.5 -251t232.5 -99q143 0 229.5 99.5t86.5 250.5t-86.5 251.5t-229.5 100.5q-146 0 -232.5 -100t-86.5 -252z M377 1190l401 166l58 -131l-408 -154z" />
<glyph unicode="&#xf4;" horiz-adv-x="1138" d="M82 477q0 140 61.5 254t173.5 181t254 67q217 0 351.5 -141t134.5 -361q0 -212 -137.5 -356t-348.5 -144q-219 0 -354 139.5t-135 360.5zM252 477q0 -152 86.5 -251t232.5 -99q143 0 229.5 99.5t86.5 250.5t-86.5 251.5t-229.5 100.5q-146 0 -232.5 -100t-86.5 -252z M272 1163l230 156q3 2 11 7t11.5 7t10.5 5.5t12 5t12 3t14 1.5t14 -1.5t12 -2.5t13 -5.5t10.5 -5.5t11.5 -7t11 -7l223 -156l-71 -94l-226 137l-227 -137z" />
<glyph unicode="&#xf5;" horiz-adv-x="1138" d="M82 477q0 140 61.5 254t173.5 181t254 67q217 0 351.5 -141t134.5 -361q0 -212 -137.5 -356t-348.5 -144q-219 0 -354 139.5t-135 360.5zM215 1174q89 133 221 133q73 0 148 -52q61 -41 112 -41q46 0 78.5 17.5t65.5 56.5l84 -76q-89 -133 -222 -133q-67 0 -151 51 q-66 41 -109 41q-46 0 -78 -17t-65 -56zM252 477q0 -152 86.5 -251t232.5 -99q143 0 229.5 99.5t86.5 250.5t-86.5 251.5t-229.5 100.5q-146 0 -232.5 -100t-86.5 -252z" />
<glyph unicode="&#xf6;" horiz-adv-x="1138" d="M82 477q0 140 61.5 254t173.5 181t254 67q217 0 351.5 -141t134.5 -361q0 -212 -137.5 -356t-348.5 -144q-219 0 -354 139.5t-135 360.5zM252 477q0 -152 86.5 -251t232.5 -99q143 0 229.5 99.5t86.5 250.5t-86.5 251.5t-229.5 100.5q-146 0 -232.5 -100t-86.5 -252z M274 1206q0 48 32 80.5t81 32.5q47 0 78 -32.5t31 -80.5t-31 -80t-78 -32q-49 0 -81 32t-32 80zM647 1206q0 48 32 80.5t81 32.5q47 0 77.5 -32.5t30.5 -80.5t-30.5 -80t-77.5 -32q-49 0 -81 32t-32 80z" />
<glyph unicode="&#xf7;" d="M184 545v170h820v-170h-820zM479 287q0 50 32 82t83 32t83 -32t32 -82t-32 -82.5t-83 -32.5t-83 32.5t-32 82.5zM479 973q0 50 32 82t83 32t83 -32t32 -82t-32 -82.5t-83 -32.5t-83 32.5t-32 82.5z" />
<glyph unicode="&#xf9;" horiz-adv-x="1130" d="M129 410v546h168v-563q0 -133 59 -200.5t168 -67.5q141 0 222 86.5t81 241.5v503h168v-956h-131q-25 70 -28 150q-56 -81 -139.5 -127t-186.5 -46q-181 0 -281 109t-100 324zM287 1225l57 131l401 -166l-51 -119z" />
<glyph unicode="&#xfa;" horiz-adv-x="1130" d="M129 410v546h168v-563q0 -133 59 -200.5t168 -67.5q141 0 222 86.5t81 241.5v503h168v-956h-131q-25 70 -28 150q-56 -81 -139.5 -127t-186.5 -46q-181 0 -281 109t-100 324zM367 1190l401 166l57 -131l-407 -154z" />
<glyph unicode="&#xfb;" horiz-adv-x="1130" d="M129 410v546h168v-563q0 -133 59 -200.5t168 -67.5q141 0 222 86.5t81 241.5v503h168v-956h-131q-25 70 -28 150q-56 -81 -139.5 -127t-186.5 -46q-181 0 -281 109t-100 324zM262 1163l230 156q3 2 11 7t11.5 7t10.5 5.5t12 5t12 3t14 1.5t14 -1.5t12 -2.5t13 -5.5 t10.5 -5.5t11.5 -7t11 -7l223 -156l-72 -94l-225 137l-227 -137z" />
<glyph unicode="&#xfc;" horiz-adv-x="1130" d="M129 410v546h168v-563q0 -133 59 -200.5t168 -67.5q141 0 222 86.5t81 241.5v503h168v-956h-131q-25 70 -28 150q-56 -81 -139.5 -127t-186.5 -46q-181 0 -281 109t-100 324zM264 1206q0 48 32 80.5t81 32.5q47 0 77.5 -32.5t30.5 -80.5t-30.5 -80t-77.5 -32 q-49 0 -81 32t-32 80zM637 1206q0 48 32 80.5t81 32.5q47 0 77.5 -32.5t30.5 -80.5t-30.5 -80t-77.5 -32q-49 0 -81 32t-32 80z" />
<glyph unicode="&#x2c6;" horiz-adv-x="1024" d="M213 1163l229 156q2 1 11 7t11.5 7t10.5 5.5t13 5.5t12 2.5t14 1.5t14 -1.5t12 -2.5t13 -5.5t10.5 -5.5t11.5 -7t11 -7l223 -156l-72 -94l-225 137l-227 -137z" />
<glyph unicode="&#x2dc;" horiz-adv-x="1024" d="M158 1174q89 133 221 133q72 0 147 -52q61 -41 113 -41q46 0 78 17t65 57l84 -76q-89 -133 -221 -133q-67 0 -151 51q-66 41 -109 41q-46 0 -78 -17t-65 -56z" />
<glyph unicode="&#x2000;" horiz-adv-x="864" />
<glyph unicode="&#x2001;" horiz-adv-x="1729" />
<glyph unicode="&#x2002;" horiz-adv-x="864" />
<glyph unicode="&#x2003;" horiz-adv-x="1729" />
<glyph unicode="&#x2004;" horiz-adv-x="576" />
<glyph unicode="&#x2005;" horiz-adv-x="432" />
<glyph unicode="&#x2006;" horiz-adv-x="288" />
<glyph unicode="&#x2007;" horiz-adv-x="288" />
<glyph unicode="&#x2008;" horiz-adv-x="216" />
<glyph unicode="&#x2009;" horiz-adv-x="345" />
<glyph unicode="&#x200a;" horiz-adv-x="96" />
<glyph unicode="&#x2010;" horiz-adv-x="999" d="M143 483v158h713v-158h-713z" />
<glyph unicode="&#x2011;" horiz-adv-x="999" d="M143 483v158h713v-158h-713z" />
<glyph unicode="&#x2012;" horiz-adv-x="999" d="M143 483v158h713v-158h-713z" />
<glyph unicode="&#x2013;" horiz-adv-x="1024" d="M0 483v158h1024v-158h-1024z" />
<glyph unicode="&#x2014;" horiz-adv-x="2048" d="M0 483v158h2048v-158h-2048z" />
<glyph unicode="&#x2018;" horiz-adv-x="487" d="M92 854q0 139 74.5 275.5t175.5 189.5l80 -102q-73 -52 -117.5 -153.5t-44.5 -209.5h-168z" />
<glyph unicode="&#x2019;" horiz-adv-x="487" d="M66 915q73 52 117 153t44 210h168q0 -139 -74.5 -275.5t-175.5 -189.5z" />
<glyph unicode="&#x201a;" horiz-adv-x="526" d="M43 -178q73 52 117.5 153t44.5 209h168q0 -139 -74.5 -275.5t-175.5 -189.5z" />
<glyph unicode="&#x201c;" horiz-adv-x="815" d="M92 854q0 139 74.5 275.5t175.5 189.5l80 -102q-73 -52 -117.5 -153.5t-44.5 -209.5h-168zM420 854q0 139 74.5 275.5t175.5 189.5l80 -102q-73 -52 -117.5 -153.5t-44.5 -209.5h-168z" />
<glyph unicode="&#x201d;" horiz-adv-x="815" d="M66 915q73 52 117 153t44 210h168q0 -139 -74.5 -275.5t-175.5 -189.5zM393 915q73 52 117.5 153.5t44.5 209.5h168q0 -139 -74.5 -275.5t-175.5 -189.5z" />
<glyph unicode="&#x201e;" horiz-adv-x="854" d="M43 -178q73 52 117.5 153t44.5 209h168q0 -139 -74.5 -275.5t-175.5 -189.5zM371 -178q73 52 117 152.5t44 209.5h168q0 -139 -74 -275.5t-175 -189.5z" />
<glyph unicode="&#x2022;" horiz-adv-x="737" d="M180 657q0 76 52.5 132.5t138.5 56.5t136 -54.5t50 -134.5q0 -77 -51.5 -133.5t-134.5 -56.5q-89 0 -140 55t-51 135z" />
<glyph unicode="&#x2026;" horiz-adv-x="1361" d="M158 92q0 50 31.5 82.5t82.5 32.5t83 -32.5t32 -82.5t-32 -82.5t-83 -32.5t-82.5 32.5t-31.5 82.5zM567 92q0 50 32 82.5t83 32.5t83 -32.5t32 -82.5t-32 -82.5t-83 -32.5t-83 32.5t-32 82.5zM977 92q0 50 32 82.5t83 32.5t82.5 -32.5t31.5 -82.5t-31.5 -82.5 t-82.5 -32.5t-83 32.5t-32 82.5z" />
<glyph unicode="&#x202f;" horiz-adv-x="345" />
<glyph unicode="&#x2039;" horiz-adv-x="624" d="M106 481l252 359h181l-252 -359l252 -358h-181z" />
<glyph unicode="&#x203a;" horiz-adv-x="624" d="M86 123l252 358l-252 359h180l252 -359l-252 -358h-180z" />
<glyph unicode="&#x205f;" horiz-adv-x="432" />
<glyph unicode="&#x20ac;" d="M74 403v150h112q-2 25 -2 78q0 46 2 69h-112v150h137q50 196 182 312t318 116q136 0 234 -51t173 -168l-114 -94q-61 80 -127.5 117.5t-167.5 37.5q-121 0 -203 -73.5t-121 -196.5h442l-51 -150h-420q-2 -23 -2 -69q0 -28 4 -78h390l-52 -150h-305q41 -123 125 -195.5 t197 -72.5q105 0 174 43.5t135 128.5l113 -94q-151 -236 -420 -236q-189 0 -321.5 113t-182.5 313h-137z" />
<glyph unicode="&#x2122;" horiz-adv-x="1677" d="M72 1145v133h622v-133h-245v-588h-132v588h-245zM803 557l47 721h113l227 -404l225 404h115l45 -721h-125l-35 498l-178 -328h-96l-178 315l-33 -485h-127z" />
<glyph unicode="&#x25fc;" horiz-adv-x="952" d="M0 0v952h952v-952h-952z" />
</font>
</defs>
</svg>
